<?xml version="1.0" encoding="UTF-8" standalone="no"?>
<!DOCTYPE svg PUBLIC "-//W3C//DTD SVG 1.1//EN"
 "http://www.w3.org/Graphics/SVG/1.1/DTD/svg11.dtd">
<!-- Generated by graphviz version 2.38.0 (20140413.2041)
 -->
<!-- Title: colm_build Pages: 1 -->
<svg width="851pt" height="2312pt"
 viewBox="0.00 0.00 850.67 2312.00" xmlns="http://www.w3.org/2000/svg" xmlns:xlink="http://www.w3.org/1999/xlink">
<g id="graph0" class="graph" transform="scale(1 1) rotate(0) translate(4 2308)">
<title>colm_build</title>
<polygon fill="white" stroke="none" points="-4,4 -4,-2308 846.668,-2308 846.668,4 -4,4"/>
<!-- consinit -->
<g id="node1" class="node"><title>consinit</title>
<polygon fill="none" stroke="blue" points="76.899,-792 17.899,-792 17.899,-756 76.899,-756 76.899,-792"/>
<text text-anchor="middle" x="47.399" y="-770.3" font-family="Times,serif" font-size="14.00">consinit</text>
</g>
<!-- bootstrap0 -->
<g id="node46" class="node"><title>bootstrap0</title>
<ellipse fill="none" stroke="blue" cx="301.894" cy="-771" rx="48.1917" ry="18"/>
<text text-anchor="middle" x="301.894" y="-767.3" font-family="Times,serif" font-size="14.00">bootstrap0</text>
</g>
<!-- consinit&#45;&gt;bootstrap0 -->
<g id="edge39" class="edge"><title>consinit&#45;&gt;bootstrap0</title>
<path fill="none" stroke="blue" d="M76.9136,-770.584C93.0024,-768.828 113.492,-766.876 131.798,-766 169.255,-764.208 211.412,-765.447 244.263,-767.14"/>
<polygon fill="blue" stroke="blue" points="244.409,-770.653 254.584,-767.702 244.789,-763.663 244.409,-770.653"/>
</g>
<!-- main -->
<g id="node2" class="node"><title>main</title>
<polygon fill="none" stroke="red" points="74.399,-846 20.399,-846 20.399,-810 74.399,-810 74.399,-846"/>
<text text-anchor="middle" x="47.399" y="-824.3" font-family="Times,serif" font-size="14.00">main</text>
</g>
<!-- main&#45;&gt;bootstrap0 -->
<g id="edge40" class="edge"><title>main&#45;&gt;bootstrap0</title>
<path fill="none" stroke="red" d="M74.4634,-818.983C90.7949,-813.556 112.361,-806.793 131.798,-802 169.877,-792.61 213.418,-784.692 246.78,-779.209"/>
<polygon fill="red" stroke="red" points="247.478,-782.642 256.789,-777.587 246.358,-775.732 247.478,-782.642"/>
<text text-anchor="middle" x="174.298" y="-805.8" font-family="Times,serif" font-size="14.00">&#45;DCONS_INIT</text>
</g>
<!-- bootstrap1 -->
<g id="node49" class="node"><title>bootstrap1</title>
<ellipse fill="none" stroke="green" cx="571.085" cy="-781" rx="48.1917" ry="18"/>
<text text-anchor="middle" x="571.085" y="-777.3" font-family="Times,serif" font-size="14.00">bootstrap1</text>
</g>
<!-- main&#45;&gt;bootstrap1 -->
<g id="edge49" class="edge"><title>main&#45;&gt;bootstrap1</title>
<path fill="none" stroke="red" d="M74.7103,-828.999C99.9835,-829.872 139.245,-831 173.298,-831 173.298,-831 173.298,-831 437.489,-831 472.767,-831 510.125,-815.313 536.165,-801.513"/>
<polygon fill="red" stroke="red" points="538.137,-804.423 545.222,-796.546 534.771,-798.286 538.137,-804.423"/>
<text text-anchor="middle" x="301.894" y="-834.8" font-family="Times,serif" font-size="14.00">&#45;DLOAD_INIT</text>
</g>
<!-- colm -->
<g id="node52" class="node"><title>colm</title>
<ellipse fill="none" stroke="green" cx="814.07" cy="-863" rx="28.6953" ry="28.6953"/>
<text text-anchor="middle" x="814.07" y="-859.3" font-family="Times,serif" font-size="14.00">colm</text>
</g>
<!-- main&#45;&gt;colm -->
<g id="edge57" class="edge"><title>main&#45;&gt;colm</title>
<path fill="none" stroke="red" d="M74.436,-841.925C104.768,-857.628 153.276,-881 173.298,-881 173.298,-881 173.298,-881 703.327,-881 727.883,-881 755.128,-876.557 776.328,-872.086"/>
<polygon fill="red" stroke="red" points="777.199,-875.478 786.211,-869.908 775.693,-868.642 777.199,-875.478"/>
<text text-anchor="middle" x="436.489" y="-884.8" font-family="Times,serif" font-size="14.00">&#45;DLOAD_COLM</text>
</g>
<!-- loadinit -->
<g id="node3" class="node"><title>loadinit</title>
<polygon fill="none" stroke="green" points="76.399,-90 18.399,-90 18.399,-54 76.399,-54 76.399,-90"/>
<text text-anchor="middle" x="47.399" y="-68.3" font-family="Times,serif" font-size="14.00">loadinit</text>
</g>
<!-- loadinit&#45;&gt;bootstrap1 -->
<g id="edge46" class="edge"><title>loadinit&#45;&gt;bootstrap1</title>
<path fill="none" stroke="green" d="M76.6775,-88.1341C101.367,-100.692 138.583,-116 173.298,-116 173.298,-116 173.298,-116 368.989,-116 504.208,-116 556.827,-626.119 567.808,-752.791"/>
<polygon fill="green" stroke="green" points="564.33,-753.2 568.663,-762.868 571.305,-752.608 564.33,-753.2"/>
</g>
<!-- colmlm -->
<g id="node4" class="node"><title>colmlm</title>
<polygon fill="none" stroke="green" points="94.6972,-23.5623 47.399,-36 0.100784,-23.5623 0.144931,-3.43769 94.6531,-3.43769 94.6972,-23.5623"/>
<text text-anchor="middle" x="47.399" y="-14.3" font-family="Times,serif" font-size="14.00">colmlm</text>
</g>
<!-- colmlm&#45;&gt;bootstrap1 -->
<g id="edge45" class="edge"><title>colmlm&#45;&gt;bootstrap1</title>
<path fill="none" stroke="green" d="M94.959,-18C118.45,-18 147.386,-18 173.298,-18 173.298,-18 173.298,-18 437.489,-18 513.578,-18 558.781,-614.597 568.225,-752.701"/>
<polygon fill="green" stroke="green" points="564.748,-753.151 568.914,-762.892 571.732,-752.679 564.748,-753.151"/>
</g>
<!-- loadcolm -->
<g id="node5" class="node"><title>loadcolm</title>
<polygon fill="none" stroke="gold" points="81.399,-2304 13.399,-2304 13.399,-2268 81.399,-2268 81.399,-2304"/>
<text text-anchor="middle" x="47.399" y="-2282.3" font-family="Times,serif" font-size="14.00">loadcolm</text>
</g>
<!-- loadcolm&#45;&gt;colm -->
<g id="edge54" class="edge"><title>loadcolm&#45;&gt;colm</title>
<path fill="none" stroke="gold" d="M81.5331,-2286C106.705,-2286 142.182,-2286 173.298,-2286 173.298,-2286 173.298,-2286 703.327,-2286 774.785,-2286 806.578,-1130.24 812.161,-901.91"/>
<polygon fill="gold" stroke="gold" points="815.664,-901.828 812.407,-891.747 808.666,-901.659 815.664,-901.828"/>
</g>
<!-- resolve -->
<g id="node6" class="node"><title>resolve</title>
<polygon fill="none" stroke="lightblue" points="75.399,-1224 19.399,-1224 19.399,-1188 75.399,-1188 75.399,-1224"/>
<text text-anchor="middle" x="47.399" y="-1202.3" font-family="Times,serif" font-size="14.00">resolve</text>
</g>
<!-- libprog -->
<g id="node32" class="node"><title>libprog</title>
<ellipse fill="none" stroke="lightblue" cx="174.298" cy="-1476" rx="36.2938" ry="36.2938"/>
<text text-anchor="middle" x="174.298" y="-1472.3" font-family="Times,serif" font-size="14.00">libprog</text>
</g>
<!-- resolve&#45;&gt;libprog -->
<g id="edge1" class="edge"><title>resolve&#45;&gt;libprog</title>
<path fill="none" stroke="lightblue" d="M75.7481,-1217.82C82.6757,-1221.83 89.6133,-1226.89 94.798,-1233 142.924,-1289.74 161.687,-1376.51 168.903,-1429.56"/>
<polygon fill="lightblue" stroke="lightblue" points="165.459,-1430.22 170.197,-1439.7 172.403,-1429.34 165.459,-1430.22"/>
</g>
<!-- lookup -->
<g id="node7" class="node"><title>lookup</title>
<polygon fill="none" stroke="lightblue" points="74.399,-1170 20.399,-1170 20.399,-1134 74.399,-1134 74.399,-1170"/>
<text text-anchor="middle" x="47.399" y="-1148.3" font-family="Times,serif" font-size="14.00">lookup</text>
</g>
<!-- lookup&#45;&gt;libprog -->
<g id="edge2" class="edge"><title>lookup&#45;&gt;libprog</title>
<path fill="none" stroke="lightblue" d="M74.7817,-1163.27C82.0266,-1167.37 89.3721,-1172.6 94.798,-1179 110.176,-1197.13 106.778,-1206.29 113.798,-1229 135.245,-1298.39 153.718,-1380.7 164.17,-1430.6"/>
<polygon fill="lightblue" stroke="lightblue" points="160.753,-1431.36 166.214,-1440.44 167.606,-1429.94 160.753,-1431.36"/>
</g>
<!-- synthesis -->
<g id="node8" class="node"><title>synthesis</title>
<polygon fill="none" stroke="lightblue" points="80.399,-1116 14.399,-1116 14.399,-1080 80.399,-1080 80.399,-1116"/>
<text text-anchor="middle" x="47.399" y="-1094.3" font-family="Times,serif" font-size="14.00">synthesis</text>
</g>
<!-- synthesis&#45;&gt;libprog -->
<g id="edge3" class="edge"><title>synthesis&#45;&gt;libprog</title>
<path fill="none" stroke="lightblue" d="M80.5608,-1112.79C85.8077,-1116.24 90.819,-1120.31 94.798,-1125 110.176,-1143.13 107.248,-1152.15 113.798,-1175 139.206,-1263.64 157.458,-1370.03 166.615,-1429.64"/>
<polygon fill="lightblue" stroke="lightblue" points="163.204,-1430.5 168.165,-1439.86 170.125,-1429.45 163.204,-1430.5"/>
</g>
<!-- parsetree -->
<g id="node9" class="node"><title>parsetree</title>
<polygon fill="none" stroke="lightblue" points="79.899,-1062 14.899,-1062 14.899,-1026 79.899,-1026 79.899,-1062"/>
<text text-anchor="middle" x="47.399" y="-1040.3" font-family="Times,serif" font-size="14.00">parsetree</text>
</g>
<!-- parsetree&#45;&gt;libprog -->
<g id="edge4" class="edge"><title>parsetree&#45;&gt;libprog</title>
<path fill="none" stroke="lightblue" d="M80.0832,-1058.48C85.503,-1062 90.6984,-1066.17 94.798,-1071 110.176,-1089.13 107.581,-1098.05 113.798,-1121 143.256,-1229.72 160.729,-1361.33 168.49,-1429.7"/>
<polygon fill="lightblue" stroke="lightblue" points="165.02,-1430.17 169.609,-1439.72 171.977,-1429.39 165.02,-1430.17"/>
</g>
<!-- parser -->
<g id="node10" class="node"><title>parser</title>
<polygon fill="none" stroke="lightblue" points="74.399,-1008 20.399,-1008 20.399,-972 74.399,-972 74.399,-1008"/>
<text text-anchor="middle" x="47.399" y="-986.3" font-family="Times,serif" font-size="14.00">parser</text>
</g>
<!-- parser&#45;&gt;libprog -->
<g id="edge5" class="edge"><title>parser&#45;&gt;libprog</title>
<path fill="none" stroke="lightblue" d="M74.7817,-1001.27C82.0266,-1005.37 89.3721,-1010.6 94.798,-1017 110.176,-1035.13 107.829,-1043.99 113.798,-1067 147.223,-1195.86 163.451,-1352.75 169.852,-1429.37"/>
<polygon fill="lightblue" stroke="lightblue" points="166.388,-1429.96 170.691,-1439.64 173.365,-1429.39 166.388,-1429.96"/>
</g>
<!-- fsmstate -->
<g id="node11" class="node"><title>fsmstate</title>
<polygon fill="none" stroke="lightblue" points="78.399,-954 16.399,-954 16.399,-918 78.399,-918 78.399,-954"/>
<text text-anchor="middle" x="47.399" y="-932.3" font-family="Times,serif" font-size="14.00">fsmstate</text>
</g>
<!-- fsmstate&#45;&gt;libprog -->
<g id="edge6" class="edge"><title>fsmstate&#45;&gt;libprog</title>
<path fill="none" stroke="lightblue" d="M78.6438,-949.561C84.5776,-953.266 90.3367,-957.74 94.798,-963 110.176,-981.129 108.021,-989.94 113.798,-1013 151.233,-1162.42 165.879,-1345.2 170.94,-1429.42"/>
<polygon fill="lightblue" stroke="lightblue" points="167.448,-1429.66 171.525,-1439.44 174.436,-1429.25 167.448,-1429.66"/>
</g>
<!-- fsmbase -->
<g id="node12" class="node"><title>fsmbase</title>
<polygon fill="none" stroke="lightblue" points="78.399,-900 16.399,-900 16.399,-864 78.399,-864 78.399,-900"/>
<text text-anchor="middle" x="47.399" y="-878.3" font-family="Times,serif" font-size="14.00">fsmbase</text>
</g>
<!-- fsmbase&#45;&gt;libprog -->
<g id="edge7" class="edge"><title>fsmbase&#45;&gt;libprog</title>
<path fill="none" stroke="lightblue" d="M78.6438,-895.561C84.5776,-899.266 90.3367,-903.74 94.798,-909 110.176,-927.129 108.173,-935.902 113.798,-959 155.222,-1129.11 168.026,-1337.92 171.803,-1429.37"/>
<polygon fill="lightblue" stroke="lightblue" points="168.308,-1429.56 172.201,-1439.41 175.302,-1429.28 168.308,-1429.56"/>
</g>
<!-- fsmattach -->
<g id="node13" class="node"><title>fsmattach</title>
<polygon fill="none" stroke="lightblue" points="82.399,-2250 12.399,-2250 12.399,-2214 82.399,-2214 82.399,-2250"/>
<text text-anchor="middle" x="47.399" y="-2228.3" font-family="Times,serif" font-size="14.00">fsmattach</text>
</g>
<!-- fsmattach&#45;&gt;libprog -->
<g id="edge8" class="edge"><title>fsmattach&#45;&gt;libprog</title>
<path fill="none" stroke="lightblue" d="M82.463,-2216.63C87.1263,-2213.34 91.4524,-2209.48 94.798,-2205 116.145,-2176.41 107.936,-2162.2 113.798,-2127 151.196,-1902.46 166.516,-1630.15 171.397,-1522.76"/>
<polygon fill="lightblue" stroke="lightblue" points="174.902,-1522.74 171.851,-1512.59 167.909,-1522.42 174.902,-1522.74"/>
</g>
<!-- fsmmin -->
<g id="node14" class="node"><title>fsmmin</title>
<polygon fill="none" stroke="lightblue" points="76.899,-2196 17.899,-2196 17.899,-2160 76.899,-2160 76.899,-2196"/>
<text text-anchor="middle" x="47.399" y="-2174.3" font-family="Times,serif" font-size="14.00">fsmmin</text>
</g>
<!-- fsmmin&#45;&gt;libprog -->
<g id="edge9" class="edge"><title>fsmmin&#45;&gt;libprog</title>
<path fill="none" stroke="lightblue" d="M77.2292,-2166.02C83.822,-2162.09 90.2257,-2157.12 94.798,-2151 116.145,-2122.41 107.792,-2108.17 113.798,-2073 148.513,-1869.71 165.121,-1623.77 170.865,-1522.75"/>
<polygon fill="lightblue" stroke="lightblue" points="174.37,-1522.76 171.434,-1512.58 167.381,-1522.37 174.37,-1522.76"/>
</g>
<!-- fsmgraph -->
<g id="node15" class="node"><title>fsmgraph</title>
<polygon fill="none" stroke="lightblue" points="81.399,-2142 13.399,-2142 13.399,-2106 81.399,-2106 81.399,-2142"/>
<text text-anchor="middle" x="47.399" y="-2120.3" font-family="Times,serif" font-size="14.00">fsmgraph</text>
</g>
<!-- fsmgraph&#45;&gt;libprog -->
<g id="edge10" class="edge"><title>fsmgraph&#45;&gt;libprog</title>
<path fill="none" stroke="lightblue" d="M81.5261,-2109.28C86.5451,-2105.86 91.2294,-2101.78 94.798,-2097 116.145,-2068.41 107.62,-2054.14 113.798,-2019 145.851,-1836.69 163.615,-1616.73 170.246,-1522.51"/>
<polygon fill="lightblue" stroke="lightblue" points="173.743,-1522.67 170.945,-1512.45 166.76,-1522.18 173.743,-1522.67"/>
</g>
<!-- fsmcodegen -->
<g id="node16" class="node"><title>fsmcodegen</title>
<polygon fill="none" stroke="lightblue" points="88.899,-2088 5.899,-2088 5.899,-2052 88.899,-2052 88.899,-2088"/>
<text text-anchor="middle" x="47.399" y="-2066.3" font-family="Times,serif" font-size="14.00">fsmcodegen</text>
</g>
<!-- fsmcodegen&#45;&gt;libprog -->
<g id="edge11" class="edge"><title>fsmcodegen&#45;&gt;libprog</title>
<path fill="none" stroke="lightblue" d="M86.0994,-2051.87C89.3557,-2049.23 92.3397,-2046.28 94.798,-2043 115.929,-2014.79 107.44,-2000.67 113.798,-1966 143.432,-1804.41 162.05,-1610.05 169.532,-1522.62"/>
<polygon fill="lightblue" stroke="lightblue" points="173.033,-1522.76 170.389,-1512.5 166.058,-1522.16 173.033,-1522.76"/>
</g>
<!-- fsmexec -->
<g id="node17" class="node"><title>fsmexec</title>
<polygon fill="none" stroke="lightblue" points="78.399,-2034 16.399,-2034 16.399,-1998 78.399,-1998 78.399,-2034"/>
<text text-anchor="middle" x="47.399" y="-2012.3" font-family="Times,serif" font-size="14.00">fsmexec</text>
</g>
<!-- fsmexec&#45;&gt;libprog -->
<g id="edge12" class="edge"><title>fsmexec&#45;&gt;libprog</title>
<path fill="none" stroke="lightblue" d="M78.6473,-2003.12C84.7252,-1999.34 90.5431,-1994.66 94.798,-1989 115.713,-1961.16 107.217,-1947.19 113.798,-1913 140.979,-1771.78 160.303,-1602.56 168.668,-1522.43"/>
<polygon fill="lightblue" stroke="lightblue" points="172.18,-1522.5 169.729,-1512.19 165.218,-1521.78 172.18,-1522.5"/>
</g>
<!-- pdagraph -->
<g id="node18" class="node"><title>pdagraph</title>
<polygon fill="none" stroke="lightblue" points="80.899,-1980 13.899,-1980 13.899,-1944 80.899,-1944 80.899,-1980"/>
<text text-anchor="middle" x="47.399" y="-1958.3" font-family="Times,serif" font-size="14.00">pdagraph</text>
</g>
<!-- pdagraph&#45;&gt;libprog -->
<g id="edge13" class="edge"><title>pdagraph&#45;&gt;libprog</title>
<path fill="none" stroke="lightblue" d="M80.9772,-1947.55C86.1817,-1944.06 91.071,-1939.89 94.798,-1935 114.851,-1908.67 107.052,-1895.4 113.798,-1863 139.188,-1741.06 158.715,-1595.41 167.764,-1522.47"/>
<polygon fill="lightblue" stroke="lightblue" points="171.274,-1522.59 169.022,-1512.24 164.327,-1521.74 171.274,-1522.59"/>
</g>
<!-- pdabuild -->
<g id="node19" class="node"><title>pdabuild</title>
<polygon fill="none" stroke="lightblue" points="79.399,-1926 15.399,-1926 15.399,-1890 79.399,-1890 79.399,-1926"/>
<text text-anchor="middle" x="47.399" y="-1904.3" font-family="Times,serif" font-size="14.00">pdabuild</text>
</g>
<!-- pdabuild&#45;&gt;libprog -->
<g id="edge14" class="edge"><title>pdabuild&#45;&gt;libprog</title>
<path fill="none" stroke="lightblue" d="M79.442,-1894.4C85.1825,-1890.73 90.6621,-1886.28 94.798,-1881 113.348,-1857.3 106.971,-1845.31 113.798,-1816 138.054,-1711.85 157.406,-1587.69 166.904,-1522.02"/>
<polygon fill="lightblue" stroke="lightblue" points="170.386,-1522.39 168.343,-1512 163.457,-1521.4 170.386,-1522.39"/>
</g>
<!-- pdacodegen -->
<g id="node20" class="node"><title>pdacodegen</title>
<polygon fill="none" stroke="lightblue" points="87.899,-1872 6.899,-1872 6.899,-1836 87.899,-1836 87.899,-1872"/>
<text text-anchor="middle" x="47.399" y="-1850.3" font-family="Times,serif" font-size="14.00">pdacodegen</text>
</g>
<!-- pdacodegen&#45;&gt;libprog -->
<g id="edge15" class="edge"><title>pdacodegen&#45;&gt;libprog</title>
<path fill="none" stroke="lightblue" d="M85.2436,-1835.9C88.7501,-1833.24 92.0248,-1830.27 94.798,-1827 110.176,-1808.87 107.248,-1799.85 113.798,-1777 139.206,-1688.36 157.458,-1581.97 166.615,-1522.36"/>
<polygon fill="lightblue" stroke="lightblue" points="170.125,-1522.55 168.165,-1512.14 163.204,-1521.5 170.125,-1522.55"/>
</g>
<!-- redfsm -->
<g id="node21" class="node"><title>redfsm</title>
<polygon fill="none" stroke="lightblue" points="74.899,-1818 19.899,-1818 19.899,-1782 74.899,-1782 74.899,-1818"/>
<text text-anchor="middle" x="47.399" y="-1796.3" font-family="Times,serif" font-size="14.00">redfsm</text>
</g>
<!-- redfsm&#45;&gt;libprog -->
<g id="edge16" class="edge"><title>redfsm&#45;&gt;libprog</title>
<path fill="none" stroke="lightblue" d="M75.3416,-1788.52C82.4301,-1784.47 89.5521,-1779.3 94.798,-1773 155.225,-1700.38 169.613,-1586.06 172.742,-1522.51"/>
<polygon fill="lightblue" stroke="lightblue" points="176.245,-1522.53 173.166,-1512.39 169.251,-1522.23 176.245,-1522.53"/>
</g>
<!-- redbuild -->
<g id="node22" class="node"><title>redbuild</title>
<polygon fill="none" stroke="lightblue" points="78.399,-1764 16.399,-1764 16.399,-1728 78.399,-1728 78.399,-1764"/>
<text text-anchor="middle" x="47.399" y="-1742.3" font-family="Times,serif" font-size="14.00">redbuild</text>
</g>
<!-- redbuild&#45;&gt;libprog -->
<g id="edge17" class="edge"><title>redbuild&#45;&gt;libprog</title>
<path fill="none" stroke="lightblue" d="M78.6699,-1732.46C84.6021,-1728.76 90.3539,-1724.27 94.798,-1719 142.738,-1662.11 161.559,-1575.38 168.837,-1522.39"/>
<polygon fill="lightblue" stroke="lightblue" points="172.335,-1522.62 170.143,-1512.26 165.393,-1521.73 172.335,-1522.62"/>
</g>
<!-- fsmap -->
<g id="node23" class="node"><title>fsmap</title>
<polygon fill="none" stroke="lightblue" points="74.399,-1710 20.399,-1710 20.399,-1674 74.399,-1674 74.399,-1710"/>
<text text-anchor="middle" x="47.399" y="-1688.3" font-family="Times,serif" font-size="14.00">fsmap</text>
</g>
<!-- fsmap&#45;&gt;libprog -->
<g id="edge18" class="edge"><title>fsmap&#45;&gt;libprog</title>
<path fill="none" stroke="lightblue" d="M74.6594,-1680.63C81.9008,-1676.52 89.2752,-1671.31 94.798,-1665 131.106,-1623.5 152.243,-1562.85 163.259,-1521.53"/>
<polygon fill="lightblue" stroke="lightblue" points="166.679,-1522.28 165.78,-1511.72 159.9,-1520.53 166.679,-1522.28"/>
</g>
<!-- dotgen -->
<g id="node24" class="node"><title>dotgen</title>
<polygon fill="none" stroke="lightblue" points="74.399,-1656 20.399,-1656 20.399,-1620 74.399,-1620 74.399,-1656"/>
<text text-anchor="middle" x="47.399" y="-1634.3" font-family="Times,serif" font-size="14.00">dotgen</text>
</g>
<!-- dotgen&#45;&gt;libprog -->
<g id="edge19" class="edge"><title>dotgen&#45;&gt;libprog</title>
<path fill="none" stroke="lightblue" d="M74.6277,-1625.87C81.7048,-1621.8 88.9995,-1616.8 94.798,-1611 121.232,-1584.56 141.967,-1547.43 155.472,-1518.8"/>
<polygon fill="lightblue" stroke="lightblue" points="158.776,-1519.99 159.772,-1509.44 152.416,-1517.07 158.776,-1519.99"/>
</g>
<!-- pcheck -->
<g id="node25" class="node"><title>pcheck</title>
<polygon fill="none" stroke="lightblue" points="74.899,-1602 19.899,-1602 19.899,-1566 74.899,-1566 74.899,-1602"/>
<text text-anchor="middle" x="47.399" y="-1580.3" font-family="Times,serif" font-size="14.00">pcheck</text>
</g>
<!-- pcheck&#45;&gt;libprog -->
<g id="edge20" class="edge"><title>pcheck&#45;&gt;libprog</title>
<path fill="none" stroke="lightblue" d="M75.225,-1570.06C81.8562,-1566.17 88.7796,-1561.71 94.798,-1557 112.133,-1543.43 129.379,-1526.16 143.273,-1511.06"/>
<polygon fill="lightblue" stroke="lightblue" points="146.1,-1513.15 150.215,-1503.39 140.91,-1508.45 146.1,-1513.15"/>
</g>
<!-- ctinput -->
<g id="node26" class="node"><title>ctinput</title>
<polygon fill="none" stroke="lightblue" points="74.399,-1548 20.399,-1548 20.399,-1512 74.399,-1512 74.399,-1548"/>
<text text-anchor="middle" x="47.399" y="-1526.3" font-family="Times,serif" font-size="14.00">ctinput</text>
</g>
<!-- ctinput&#45;&gt;libprog -->
<g id="edge21" class="edge"><title>ctinput&#45;&gt;libprog</title>
<path fill="none" stroke="lightblue" d="M74.5819,-1518.68C90.9818,-1511.59 112.488,-1502.29 131.239,-1494.18"/>
<polygon fill="lightblue" stroke="lightblue" points="132.68,-1497.37 140.47,-1490.19 129.902,-1490.95 132.68,-1497.37"/>
</g>
<!-- declare -->
<g id="node27" class="node"><title>declare</title>
<polygon fill="none" stroke="lightblue" points="75.399,-1494 19.399,-1494 19.399,-1458 75.399,-1458 75.399,-1494"/>
<text text-anchor="middle" x="47.399" y="-1472.3" font-family="Times,serif" font-size="14.00">declare</text>
</g>
<!-- declare&#45;&gt;libprog -->
<g id="edge22" class="edge"><title>declare&#45;&gt;libprog</title>
<path fill="none" stroke="lightblue" d="M75.5002,-1476C90.7339,-1476 110.152,-1476 127.664,-1476"/>
<polygon fill="lightblue" stroke="lightblue" points="127.708,-1479.5 137.708,-1476 127.708,-1472.5 127.708,-1479.5"/>
</g>
<!-- codegen -->
<g id="node28" class="node"><title>codegen</title>
<polygon fill="none" stroke="lightblue" points="78.399,-1440 16.399,-1440 16.399,-1404 78.399,-1404 78.399,-1440"/>
<text text-anchor="middle" x="47.399" y="-1418.3" font-family="Times,serif" font-size="14.00">codegen</text>
</g>
<!-- codegen&#45;&gt;libprog -->
<g id="edge23" class="edge"><title>codegen&#45;&gt;libprog</title>
<path fill="none" stroke="lightblue" d="M78.6336,-1435.07C94.4715,-1441.92 114.116,-1450.41 131.398,-1457.88"/>
<polygon fill="lightblue" stroke="lightblue" points="130.149,-1461.16 140.717,-1461.91 132.927,-1454.73 130.149,-1461.16"/>
</g>
<!-- exports -->
<g id="node29" class="node"><title>exports</title>
<polygon fill="none" stroke="lightblue" points="75.399,-1386 19.399,-1386 19.399,-1350 75.399,-1350 75.399,-1386"/>
<text text-anchor="middle" x="47.399" y="-1364.3" font-family="Times,serif" font-size="14.00">exports</text>
</g>
<!-- exports&#45;&gt;libprog -->
<g id="edge24" class="edge"><title>exports&#45;&gt;libprog</title>
<path fill="none" stroke="lightblue" d="M75.7107,-1382.22C82.1933,-1386.04 88.9264,-1390.4 94.798,-1395 112.133,-1408.57 129.379,-1425.84 143.273,-1440.94"/>
<polygon fill="lightblue" stroke="lightblue" points="140.91,-1443.55 150.215,-1448.61 146.1,-1438.85 140.91,-1443.55"/>
</g>
<!-- compiler -->
<g id="node30" class="node"><title>compiler</title>
<polygon fill="none" stroke="lightblue" points="79.899,-1332 14.899,-1332 14.899,-1296 79.899,-1296 79.899,-1332"/>
<text text-anchor="middle" x="47.399" y="-1310.3" font-family="Times,serif" font-size="14.00">compiler</text>
</g>
<!-- compiler&#45;&gt;libprog -->
<g id="edge25" class="edge"><title>compiler&#45;&gt;libprog</title>
<path fill="none" stroke="lightblue" d="M79.9496,-1329.35C85.2587,-1332.75 90.4492,-1336.65 94.798,-1341 121.232,-1367.44 141.967,-1404.57 155.472,-1433.2"/>
<polygon fill="lightblue" stroke="lightblue" points="152.416,-1434.93 159.772,-1442.56 158.776,-1432.01 152.416,-1434.93"/>
</g>
<!-- reduce -->
<g id="node31" class="node"><title>reduce</title>
<polygon fill="none" stroke="lightblue" points="74.399,-1278 20.399,-1278 20.399,-1242 74.399,-1242 74.399,-1278"/>
<text text-anchor="middle" x="47.399" y="-1256.3" font-family="Times,serif" font-size="14.00">reduce</text>
</g>
<!-- reduce&#45;&gt;libprog -->
<g id="edge26" class="edge"><title>reduce&#45;&gt;libprog</title>
<path fill="none" stroke="lightblue" d="M74.6594,-1271.37C81.9008,-1275.48 89.2752,-1280.69 94.798,-1287 131.106,-1328.5 152.243,-1389.15 163.259,-1430.47"/>
<polygon fill="lightblue" stroke="lightblue" points="159.9,-1431.47 165.78,-1440.28 166.679,-1429.72 159.9,-1431.47"/>
</g>
<!-- libprog&#45;&gt;bootstrap0 -->
<g id="edge42" class="edge"><title>libprog&#45;&gt;bootstrap0</title>
<path fill="none" stroke="lightblue" d="M178.078,-1439.78C185.206,-1349.85 205.641,-1109.19 234.798,-910 241.413,-864.805 230.357,-848.202 253.798,-809 257.348,-803.063 262.188,-797.666 267.418,-792.924"/>
<polygon fill="lightblue" stroke="lightblue" points="269.769,-795.522 275.257,-786.459 265.315,-790.122 269.769,-795.522"/>
</g>
<!-- libprog&#45;&gt;bootstrap1 -->
<g id="edge51" class="edge"><title>libprog&#45;&gt;bootstrap1</title>
<path fill="none" stroke="lightblue" d="M177.808,-1439.45C182.696,-1385.5 196.614,-1282.45 234.798,-1204 311.5,-1046.41 379.518,-1039.22 485.989,-900 509.942,-868.68 535.9,-831.387 552.544,-807.004"/>
<polygon fill="lightblue" stroke="lightblue" points="555.503,-808.877 558.233,-798.64 549.715,-804.94 555.503,-808.877"/>
</g>
<!-- libprog&#45;&gt;colm -->
<g id="edge59" class="edge"><title>libprog&#45;&gt;colm</title>
<path fill="none" stroke="lightblue" d="M176.708,-1439.58C181.614,-1368.46 203.501,-1218 300.894,-1218 300.894,-1218 300.894,-1218 703.327,-1218 769.014,-1218 799.641,-993.341 809.42,-901.462"/>
<polygon fill="lightblue" stroke="lightblue" points="812.908,-901.759 810.459,-891.451 805.946,-901.036 812.908,-901.759"/>
</g>
<!-- map -->
<g id="node33" class="node"><title>map</title>
<polygon fill="none" stroke="brown" points="74.399,-252 20.399,-252 20.399,-216 74.399,-216 74.399,-252"/>
<text text-anchor="middle" x="47.399" y="-230.3" font-family="Times,serif" font-size="14.00">map</text>
</g>
<!-- libcolm -->
<g id="node45" class="node"><title>libcolm</title>
<ellipse fill="none" stroke="brown" cx="174.298" cy="-450" rx="38.1938" ry="38.1938"/>
<text text-anchor="middle" x="174.298" y="-446.3" font-family="Times,serif" font-size="14.00">libcolm</text>
</g>
<!-- map&#45;&gt;libcolm -->
<g id="edge27" class="edge"><title>map&#45;&gt;libcolm</title>
<path fill="none" stroke="brown" d="M74.6594,-245.372C81.9008,-249.476 89.2752,-254.687 94.798,-261 130.566,-301.886 151.61,-361.35 162.76,-402.617"/>
<polygon fill="brown" stroke="brown" points="159.409,-403.639 165.319,-412.433 166.183,-401.874 159.409,-403.639"/>
</g>
<!-- list -->
<g id="node34" class="node"><title>list</title>
<polygon fill="none" stroke="brown" points="74.399,-198 20.399,-198 20.399,-162 74.399,-162 74.399,-198"/>
<text text-anchor="middle" x="47.399" y="-176.3" font-family="Times,serif" font-size="14.00">list</text>
</g>
<!-- list&#45;&gt;libcolm -->
<g id="edge28" class="edge"><title>list&#45;&gt;libcolm</title>
<path fill="none" stroke="brown" d="M74.7817,-191.266C82.0266,-195.367 89.3721,-200.603 94.798,-207 142.252,-262.944 161.157,-348.089 168.593,-401.314"/>
<polygon fill="brown" stroke="brown" points="165.161,-402.056 169.933,-411.516 172.101,-401.145 165.161,-402.056"/>
</g>
<!-- input -->
<g id="node35" class="node"><title>input</title>
<polygon fill="none" stroke="brown" points="74.399,-144 20.399,-144 20.399,-108 74.399,-108 74.399,-144"/>
<text text-anchor="middle" x="47.399" y="-122.3" font-family="Times,serif" font-size="14.00">input</text>
</g>
<!-- input&#45;&gt;libcolm -->
<g id="edge29" class="edge"><title>input&#45;&gt;libcolm</title>
<path fill="none" stroke="brown" d="M74.7817,-137.266C82.0266,-141.367 89.3721,-146.603 94.798,-153 110.176,-171.129 106.778,-180.288 113.798,-203 134.94,-271.403 153.192,-352.363 163.719,-402.458"/>
<polygon fill="brown" stroke="brown" points="160.316,-403.282 165.784,-412.357 167.169,-401.853 160.316,-403.282"/>
</g>
<!-- debug -->
<g id="node36" class="node"><title>debug</title>
<polygon fill="none" stroke="brown" points="74.399,-738 20.399,-738 20.399,-702 74.399,-702 74.399,-738"/>
<text text-anchor="middle" x="47.399" y="-716.3" font-family="Times,serif" font-size="14.00">debug</text>
</g>
<!-- debug&#45;&gt;libcolm -->
<g id="edge30" class="edge"><title>debug&#45;&gt;libcolm</title>
<path fill="none" stroke="brown" d="M74.7817,-708.734C82.0266,-704.633 89.3721,-699.397 94.798,-693 142.252,-637.056 161.157,-551.911 168.593,-498.686"/>
<polygon fill="brown" stroke="brown" points="172.101,-498.855 169.933,-488.484 165.161,-497.944 172.101,-498.855"/>
</g>
<!-- codevec -->
<g id="node37" class="node"><title>codevec</title>
<polygon fill="none" stroke="brown" points="77.899,-684 16.899,-684 16.899,-648 77.899,-648 77.899,-684"/>
<text text-anchor="middle" x="47.399" y="-662.3" font-family="Times,serif" font-size="14.00">codevec</text>
</g>
<!-- codevec&#45;&gt;libcolm -->
<g id="edge31" class="edge"><title>codevec&#45;&gt;libcolm</title>
<path fill="none" stroke="brown" d="M78.0409,-652.633C84.1503,-648.877 90.1343,-644.331 94.798,-639 130.566,-598.114 151.61,-538.65 162.76,-497.383"/>
<polygon fill="brown" stroke="brown" points="166.183,-498.126 165.319,-487.567 159.409,-496.361 166.183,-498.126"/>
</g>
<!-- pool -->
<g id="node38" class="node"><title>pool</title>
<polygon fill="none" stroke="brown" points="74.399,-630 20.399,-630 20.399,-594 74.399,-594 74.399,-630"/>
<text text-anchor="middle" x="47.399" y="-608.3" font-family="Times,serif" font-size="14.00">pool</text>
</g>
<!-- pool&#45;&gt;libcolm -->
<g id="edge32" class="edge"><title>pool&#45;&gt;libcolm</title>
<path fill="none" stroke="brown" d="M74.6277,-599.872C81.7048,-595.803 88.9995,-590.8 94.798,-585 120.716,-559.074 141.155,-522.873 154.672,-494.485"/>
<polygon fill="brown" stroke="brown" points="157.954,-495.727 158.988,-485.183 151.604,-492.78 157.954,-495.727"/>
</g>
<!-- string -->
<g id="node39" class="node"><title>string</title>
<polygon fill="none" stroke="brown" points="74.399,-576 20.399,-576 20.399,-540 74.399,-540 74.399,-576"/>
<text text-anchor="middle" x="47.399" y="-554.3" font-family="Times,serif" font-size="14.00">string</text>
</g>
<!-- string&#45;&gt;libcolm -->
<g id="edge33" class="edge"><title>string&#45;&gt;libcolm</title>
<path fill="none" stroke="brown" d="M74.7403,-544.347C81.5179,-540.39 88.6328,-535.825 94.798,-531 111.608,-517.845 128.334,-501.208 142.001,-486.438"/>
<polygon fill="brown" stroke="brown" points="144.708,-488.664 148.853,-478.914 139.532,-483.951 144.708,-488.664"/>
</g>
<!-- tree -->
<g id="node40" class="node"><title>tree</title>
<polygon fill="none" stroke="brown" points="74.399,-522 20.399,-522 20.399,-486 74.399,-486 74.399,-522"/>
<text text-anchor="middle" x="47.399" y="-500.3" font-family="Times,serif" font-size="14.00">tree</text>
</g>
<!-- tree&#45;&gt;libcolm -->
<g id="edge34" class="edge"><title>tree&#45;&gt;libcolm</title>
<path fill="none" stroke="brown" d="M74.5819,-492.68C90.4196,-485.832 111.02,-476.926 129.301,-469.022"/>
<polygon fill="brown" stroke="brown" points="130.823,-472.177 138.613,-464.996 128.045,-465.752 130.823,-472.177"/>
</g>
<!-- bytecode -->
<g id="node41" class="node"><title>bytecode</title>
<polygon fill="none" stroke="brown" points="79.899,-468 14.899,-468 14.899,-432 79.899,-432 79.899,-468"/>
<text text-anchor="middle" x="47.399" y="-446.3" font-family="Times,serif" font-size="14.00">bytecode</text>
</g>
<!-- bytecode&#45;&gt;libcolm -->
<g id="edge35" class="edge"><title>bytecode&#45;&gt;libcolm</title>
<path fill="none" stroke="brown" d="M79.9163,-450C93.6559,-450 110.068,-450 125.273,-450"/>
<polygon fill="brown" stroke="brown" points="125.559,-453.5 135.559,-450 125.559,-446.5 125.559,-453.5"/>
</g>
<!-- program -->
<g id="node42" class="node"><title>program</title>
<polygon fill="none" stroke="brown" points="78.899,-414 15.899,-414 15.899,-378 78.899,-378 78.899,-414"/>
<text text-anchor="middle" x="47.399" y="-392.3" font-family="Times,serif" font-size="14.00">program</text>
</g>
<!-- program&#45;&gt;libcolm -->
<g id="edge36" class="edge"><title>program&#45;&gt;libcolm</title>
<path fill="none" stroke="brown" d="M78.9527,-409.21C94.0454,-415.735 112.536,-423.729 129.135,-430.906"/>
<polygon fill="brown" stroke="brown" points="128.083,-434.264 138.651,-435.02 130.861,-427.839 128.083,-434.264"/>
</g>
<!-- struct -->
<g id="node43" class="node"><title>struct</title>
<polygon fill="none" stroke="brown" points="74.399,-360 20.399,-360 20.399,-324 74.399,-324 74.399,-360"/>
<text text-anchor="middle" x="47.399" y="-338.3" font-family="Times,serif" font-size="14.00">struct</text>
</g>
<!-- struct&#45;&gt;libcolm -->
<g id="edge37" class="edge"><title>struct&#45;&gt;libcolm</title>
<path fill="none" stroke="brown" d="M74.7403,-355.653C81.5179,-359.61 88.6328,-364.175 94.798,-369 111.608,-382.155 128.334,-398.792 142.001,-413.562"/>
<polygon fill="brown" stroke="brown" points="139.532,-416.049 148.853,-421.086 144.708,-411.336 139.532,-416.049"/>
</g>
<!-- commit -->
<g id="node44" class="node"><title>commit</title>
<polygon fill="none" stroke="brown" points="76.899,-306 17.899,-306 17.899,-270 76.899,-270 76.899,-306"/>
<text text-anchor="middle" x="47.399" y="-284.3" font-family="Times,serif" font-size="14.00">commit</text>
</g>
<!-- commit&#45;&gt;libcolm -->
<g id="edge38" class="edge"><title>commit&#45;&gt;libcolm</title>
<path fill="none" stroke="brown" d="M77.0463,-301.551C83.3434,-305.344 89.6585,-309.859 94.798,-315 120.716,-340.926 141.155,-377.127 154.672,-405.515"/>
<polygon fill="brown" stroke="brown" points="151.604,-407.22 158.988,-414.817 157.954,-404.273 151.604,-407.22"/>
</g>
<!-- libcolm&#45;&gt;bootstrap0 -->
<g id="edge41" class="edge"><title>libcolm&#45;&gt;bootstrap0</title>
<path fill="none" stroke="brown" d="M189.219,-485.579C214.464,-550.101 267.288,-685.109 290.063,-743.318"/>
<polygon fill="brown" stroke="brown" points="286.924,-744.903 293.827,-752.94 293.443,-742.352 286.924,-744.903"/>
</g>
<!-- libcolm&#45;&gt;bootstrap1 -->
<g id="edge50" class="edge"><title>libcolm&#45;&gt;bootstrap1</title>
<path fill="none" stroke="brown" d="M204.944,-473.102C260.828,-516.876 385.195,-615.376 485.989,-703 506.266,-720.627 528.529,-741.34 545.052,-756.99"/>
<polygon fill="brown" stroke="brown" points="543.009,-759.877 552.668,-764.23 547.832,-754.803 543.009,-759.877"/>
</g>
<!-- libcolm&#45;&gt;colm -->
<g id="edge58" class="edge"><title>libcolm&#45;&gt;colm</title>
<path fill="none" stroke="brown" d="M174.693,-411.607C175.641,-331.516 190.224,-154 300.894,-154 300.894,-154 300.894,-154 703.327,-154 771.748,-154 803.563,-676.314 811.206,-824.33"/>
<polygon fill="brown" stroke="brown" points="807.711,-824.519 811.714,-834.328 814.702,-824.163 807.711,-824.519"/>
</g>
<!-- genparse1 -->
<g id="node47" class="node"><title>genparse1</title>
<ellipse fill="none" stroke="black" cx="436.489" cy="-784" rx="46.2923" ry="18"/>
<text text-anchor="middle" x="436.489" y="-780.3" font-family="Times,serif" font-size="14.00">genparse1</text>
</g>
<!-- bootstrap0&#45;&gt;genparse1 -->
<g id="edge43" class="edge"><title>bootstrap0&#45;&gt;genparse1</title>
<path fill="none" stroke="blue" d="M348.526,-775.474C359.085,-776.509 370.421,-777.621 381.306,-778.688"/>
<polygon fill="blue" stroke="blue" points="381.271,-782.201 391.564,-779.693 381.954,-775.234 381.271,-782.201"/>
</g>
<!-- genif1 -->
<g id="node48" class="node"><title>genif1</title>
<ellipse fill="none" stroke="black" cx="436.489" cy="-730" rx="33.2948" ry="18"/>
<text text-anchor="middle" x="436.489" y="-726.3" font-family="Times,serif" font-size="14.00">genif1</text>
</g>
<!-- bootstrap0&#45;&gt;genif1 -->
<g id="edge44" class="edge"><title>bootstrap0&#45;&gt;genif1</title>
<path fill="none" stroke="blue" d="M339.477,-759.688C357.587,-754.088 379.426,-747.335 397.698,-741.686"/>
<polygon fill="blue" stroke="blue" points="398.915,-744.973 407.435,-738.675 396.848,-738.285 398.915,-744.973"/>
</g>
<!-- genparse1&#45;&gt;bootstrap1 -->
<g id="edge47" class="edge"><title>genparse1&#45;&gt;bootstrap1</title>
<path fill="none" stroke="blue" d="M482.751,-782.976C492.328,-782.759 502.558,-782.528 512.521,-782.302"/>
<polygon fill="blue" stroke="blue" points="512.85,-785.796 522.768,-782.071 512.691,-778.798 512.85,-785.796"/>
</g>
<!-- genif1&#45;&gt;bootstrap1 -->
<g id="edge48" class="edge"><title>genif1&#45;&gt;bootstrap1</title>
<path fill="none" stroke="blue" d="M464.004,-740.198C482.141,-747.174 506.583,-756.575 527.433,-764.595"/>
<polygon fill="blue" stroke="blue" points="526.441,-767.963 537.03,-768.286 528.953,-761.43 526.441,-767.963"/>
</g>
<!-- genparse2 -->
<g id="node50" class="node"><title>genparse2</title>
<ellipse fill="none" stroke="black" cx="702.327" cy="-781" rx="46.2923" ry="18"/>
<text text-anchor="middle" x="702.327" y="-777.3" font-family="Times,serif" font-size="14.00">genparse2</text>
</g>
<!-- bootstrap1&#45;&gt;genparse2 -->
<g id="edge52" class="edge"><title>bootstrap1&#45;&gt;genparse2</title>
<path fill="none" stroke="green" d="M619.476,-781C628.072,-781 637.106,-781 645.908,-781"/>
<polygon fill="green" stroke="green" points="646.093,-784.5 656.093,-781 646.093,-777.5 646.093,-784.5"/>
</g>
<!-- genif2 -->
<g id="node51" class="node"><title>genif2</title>
<ellipse fill="none" stroke="black" cx="702.327" cy="-835" rx="33.2948" ry="18"/>
<text text-anchor="middle" x="702.327" y="-831.3" font-family="Times,serif" font-size="14.00">genif2</text>
</g>
<!-- bootstrap1&#45;&gt;genif2 -->
<g id="edge53" class="edge"><title>bootstrap1&#45;&gt;genif2</title>
<path fill="none" stroke="green" d="M604.033,-794.348C622.833,-802.203 646.64,-812.151 665.999,-820.239"/>
<polygon fill="green" stroke="green" points="664.808,-823.535 675.384,-824.161 667.506,-817.076 664.808,-823.535"/>
</g>
<!-- genparse2&#45;&gt;colm -->
<g id="edge55" class="edge"><title>genparse2&#45;&gt;colm</title>
<path fill="none" stroke="green" d="M729.583,-795.7C735.9,-799.509 742.536,-803.742 748.473,-808 760.897,-816.911 773.867,-827.638 784.897,-837.244"/>
<polygon fill="green" stroke="green" points="782.736,-840.005 792.55,-843.998 787.368,-834.757 782.736,-840.005"/>
</g>
<!-- genif2&#45;&gt;colm -->
<g id="edge56" class="edge"><title>genif2&#45;&gt;colm</title>
<path fill="none" stroke="green" d="M732.736,-842.503C746.122,-845.919 762.105,-849.997 776.277,-853.613"/>
<polygon fill="green" stroke="green" points="775.658,-857.067 786.213,-856.148 777.389,-850.284 775.658,-857.067"/>
</g>
</g>
</svg>
