<?xml version="1.0" encoding="UTF-8" standalone="no"?>
<!DOCTYPE svg PUBLIC "-//W3C//DTD SVG 1.1//EN"
 "http://www.w3.org/Graphics/SVG/1.1/DTD/svg11.dtd">
<!-- Generated by graphviz version 2.38.0 (20140413.2041)
 -->
<!-- Title: colmc Pages: 1 -->
<svg width="2591pt" height="444pt"
 viewBox="0.00 0.00 2591.03 444.00" xmlns="http://www.w3.org/2000/svg" xmlns:xlink="http://www.w3.org/1999/xlink">
<g id="graph0" class="graph" transform="scale(1 1) rotate(0) translate(4 440)">
<title>colmc</title>
<polygon fill="white" stroke="none" points="-4,4 -4,-440 2587.03,-440 2587.03,4 -4,4"/>
<g id="clust1" class="cluster"><title>cluster_header</title>
<polygon fill="none" stroke="black" points="8,-88 8,-428 1178,-428 1178,-88 8,-88"/>
</g>
<g id="clust2" class="cluster"><title>cluster_code</title>
<polygon fill="none" stroke="black" points="1186,-8 1186,-292 2506,-292 2506,-8 1186,-8"/>
</g>
<g id="clust3" class="cluster"><title>cluster_bytecode</title>
<polygon fill="none" stroke="black" points="2124,-160 2124,-284 2242,-284 2242,-160 2124,-160"/>
</g>
<g id="clust4" class="cluster"><title>cluster_debug</title>
<polygon fill="none" stroke="black" points="2400,-160 2400,-284 2498,-284 2498,-160 2400,-160"/>
</g>
<g id="clust5" class="cluster"><title>cluster_input</title>
<polygon fill="none" stroke="black" points="1484,-160 1484,-284 1576,-284 1576,-160 1484,-160"/>
</g>
<g id="clust6" class="cluster"><title>cluster_map</title>
<polygon fill="none" stroke="black" points="1347,-16 1347,-140 1433,-140 1433,-16 1347,-16"/>
</g>
<g id="clust7" class="cluster"><title>cluster_pdarun</title>
<polygon fill="none" stroke="black" points="1372,-160 1372,-284 1476,-284 1476,-160 1372,-160"/>
</g>
<g id="clust8" class="cluster"><title>cluster_pool</title>
<polygon fill="none" stroke="black" points="1226,-160 1226,-284 1312,-284 1312,-160 1226,-160"/>
</g>
<g id="clust9" class="cluster"><title>cluster_program</title>
<polygon fill="none" stroke="black" points="1748,-160 1748,-212 1980,-212 1980,-160 1748,-160"/>
</g>
<g id="clust10" class="cluster"><title>cluster_struct</title>
<polygon fill="none" stroke="black" points="1584,-232 1584,-284 1772,-284 1772,-232 1584,-232"/>
</g>
<g id="clust11" class="cluster"><title>cluster_tree</title>
<polygon fill="none" stroke="black" points="2002,-160 2002,-284 2082,-284 2082,-160 2002,-160"/>
</g>
<!-- buffer_h -->
<g id="node1" class="node"><title>buffer_h</title>
<ellipse fill="none" stroke="black" cx="1129" cy="-402" rx="40.8928" ry="18"/>
<text text-anchor="middle" x="1129" y="-398.3" font-family="Times,serif" font-size="14.00">buffer_h</text>
</g>
<!-- colm_h -->
<g id="node2" class="node"><title>colm_h</title>
<ellipse fill="none" stroke="red" cx="1132" cy="-330" rx="37.8943" ry="18"/>
<text text-anchor="middle" x="1132" y="-326.3" font-family="Times,serif" font-size="14.00">colm_h</text>
</g>
<!-- internal_h -->
<g id="node12" class="node"><title>internal_h</title>
<ellipse fill="none" stroke="black" cx="1056" cy="-258" rx="46.2923" ry="18"/>
<text text-anchor="middle" x="1056" y="-254.3" font-family="Times,serif" font-size="14.00">internal_h</text>
</g>
<!-- colm_h&#45;&gt;internal_h -->
<g id="edge99" class="edge"><title>colm_h&#45;&gt;internal_h</title>
<path fill="none" stroke="black" d="M1115.51,-313.811C1105.36,-304.467 1092.17,-292.315 1080.78,-281.827"/>
<polygon fill="black" stroke="black" points="1082.98,-279.089 1073.25,-274.888 1078.23,-284.237 1082.98,-279.089"/>
</g>
<!-- commit_c -->
<g id="node27" class="node"><title>commit_c</title>
<ellipse fill="none" stroke="black" cx="1671" cy="-186" rx="46.5926" ry="18"/>
<text text-anchor="middle" x="1671" y="-182.3" font-family="Times,serif" font-size="14.00">commit_c</text>
</g>
<!-- colm_h&#45;&gt;commit_c -->
<g id="edge1" class="edge"><title>colm_h&#45;&gt;commit_c</title>
<path fill="none" stroke="black" d="M1152.72,-314.681C1161.32,-308.25 1171.11,-300.257 1179,-292 1201.67,-268.284 1193.25,-247.798 1222,-232 1291.83,-193.633 1501.36,-224.849 1580,-212 1595.37,-209.488 1611.87,-205.395 1626.55,-201.241"/>
<polygon fill="black" stroke="black" points="1627.76,-204.533 1636.38,-198.373 1625.8,-197.813 1627.76,-204.533"/>
</g>
<!-- iter_c -->
<g id="node29" class="node"><title>iter_c</title>
<ellipse fill="none" stroke="black" cx="1503" cy="-114" rx="30.5947" ry="18"/>
<text text-anchor="middle" x="1503" y="-110.3" font-family="Times,serif" font-size="14.00">iter_c</text>
</g>
<!-- colm_h&#45;&gt;iter_c -->
<g id="edge9" class="edge"><title>colm_h&#45;&gt;iter_c</title>
<path fill="none" stroke="black" d="M1130.98,-311.996C1130.47,-291.908 1131.79,-257.946 1144,-232 1162.75,-192.176 1172.39,-179.197 1212,-160 1302.34,-116.214 1339.14,-162.435 1437,-140 1448.04,-137.469 1459.72,-133.505 1470.13,-129.474"/>
<polygon fill="black" stroke="black" points="1471.69,-132.617 1479.66,-125.632 1469.07,-126.124 1471.69,-132.617"/>
</g>
<!-- debug_h -->
<g id="node33" class="node"><title>debug_h</title>
<ellipse fill="none" stroke="black" cx="2449" cy="-258" rx="40.8928" ry="18"/>
<text text-anchor="middle" x="2449" y="-254.3" font-family="Times,serif" font-size="14.00">debug_h</text>
</g>
<!-- colm_h&#45;&gt;debug_h -->
<g id="edge90" class="edge"><title>colm_h&#45;&gt;debug_h</title>
<path fill="none" stroke="black" d="M1169.76,-328.396C1339.17,-325.585 2030.29,-313.028 2246,-292 2300.06,-286.73 2361.54,-276.072 2402.55,-268.29"/>
<polygon fill="black" stroke="black" points="2403.35,-271.699 2412.51,-266.378 2402.03,-264.825 2403.35,-271.699"/>
</g>
<!-- pdarun_c -->
<g id="node40" class="node"><title>pdarun_c</title>
<ellipse fill="none" stroke="black" cx="1424" cy="-186" rx="43.5923" ry="18"/>
<text text-anchor="middle" x="1424" y="-182.3" font-family="Times,serif" font-size="14.00">pdarun_c</text>
</g>
<!-- colm_h&#45;&gt;pdarun_c -->
<g id="edge19" class="edge"><title>colm_h&#45;&gt;pdarun_c</title>
<path fill="none" stroke="black" d="M1138.6,-311.887C1148.62,-286.83 1167.98,-242.039 1182,-232 1230.96,-196.939 1256.84,-223.243 1316,-212 1336.35,-208.132 1358.69,-203.096 1377.74,-198.558"/>
<polygon fill="black" stroke="black" points="1378.76,-201.913 1387.66,-196.17 1377.12,-195.108 1378.76,-201.913"/>
</g>
<!-- struct_c -->
<g id="node46" class="node"><title>struct_c</title>
<ellipse fill="none" stroke="black" cx="1630" cy="-258" rx="38.1938" ry="18"/>
<text text-anchor="middle" x="1630" y="-254.3" font-family="Times,serif" font-size="14.00">struct_c</text>
</g>
<!-- colm_h&#45;&gt;struct_c -->
<g id="edge27" class="edge"><title>colm_h&#45;&gt;struct_c</title>
<path fill="none" stroke="black" d="M1169.6,-328.284C1263.19,-326.122 1504.49,-318.108 1580,-292 1588.02,-289.228 1596,-284.872 1603.16,-280.224"/>
<polygon fill="black" stroke="black" points="1605.51,-282.855 1611.73,-274.276 1601.51,-277.105 1605.51,-282.855"/>
</g>
<!-- tree_h -->
<g id="node47" class="node"><title>tree_h</title>
<ellipse fill="none" stroke="black" cx="2042" cy="-258" rx="32.4942" ry="18"/>
<text text-anchor="middle" x="2042" y="-254.3" font-family="Times,serif" font-size="14.00">tree_h</text>
</g>
<!-- colm_h&#45;&gt;tree_h -->
<g id="edge109" class="edge"><title>colm_h&#45;&gt;tree_h</title>
<path fill="none" stroke="black" d="M1169.45,-327.714C1268.57,-324.122 1545.96,-312.854 1776,-292 1855.78,-284.768 1948.54,-272.341 2000.75,-264.975"/>
<polygon fill="black" stroke="black" points="2001.54,-268.399 2010.95,-263.528 2000.56,-261.468 2001.54,-268.399"/>
</g>
<!-- compiler_h -->
<g id="node3" class="node"><title>compiler_h</title>
<ellipse fill="none" stroke="black" cx="867" cy="-186" rx="51.1914" ry="18"/>
<text text-anchor="middle" x="867" y="-182.3" font-family="Times,serif" font-size="14.00">compiler_h</text>
</g>
<!-- consinit_h -->
<g id="node5" class="node"><title>consinit_h</title>
<ellipse fill="none" stroke="black" cx="865" cy="-114" rx="47.3916" ry="18"/>
<text text-anchor="middle" x="865" y="-110.3" font-family="Times,serif" font-size="14.00">consinit_h</text>
</g>
<!-- compiler_h&#45;&gt;consinit_h -->
<g id="edge87" class="edge"><title>compiler_h&#45;&gt;consinit_h</title>
<path fill="none" stroke="black" d="M866.506,-167.697C866.285,-159.983 866.02,-150.712 865.775,-142.112"/>
<polygon fill="black" stroke="black" points="869.273,-142 865.489,-132.104 862.276,-142.2 869.273,-142"/>
</g>
<!-- fsmcodegen_h -->
<g id="node9" class="node"><title>fsmcodegen_h</title>
<ellipse fill="none" stroke="black" cx="353" cy="-114" rx="62.2891" ry="18"/>
<text text-anchor="middle" x="353" y="-110.3" font-family="Times,serif" font-size="14.00">fsmcodegen_h</text>
</g>
<!-- compiler_h&#45;&gt;fsmcodegen_h -->
<g id="edge92" class="edge"><title>compiler_h&#45;&gt;fsmcodegen_h</title>
<path fill="none" stroke="black" d="M820.023,-178.602C727.925,-166.06 523.481,-138.217 418.299,-123.893"/>
<polygon fill="black" stroke="black" points="418.51,-120.389 408.129,-122.508 417.565,-127.325 418.51,-120.389"/>
</g>
<!-- loadinit_h -->
<g id="node15" class="node"><title>loadinit_h</title>
<ellipse fill="none" stroke="black" cx="977" cy="-114" rx="46.2923" ry="18"/>
<text text-anchor="middle" x="977" y="-110.3" font-family="Times,serif" font-size="14.00">loadinit_h</text>
</g>
<!-- compiler_h&#45;&gt;loadinit_h -->
<g id="edge101" class="edge"><title>compiler_h&#45;&gt;loadinit_h</title>
<path fill="none" stroke="black" d="M890.598,-169.983C906.51,-159.857 927.696,-146.375 945.106,-135.296"/>
<polygon fill="black" stroke="black" points="947.261,-138.073 953.819,-129.752 943.503,-132.168 947.261,-138.073"/>
</g>
<!-- config_h -->
<g id="node4" class="node"><title>config_h</title>
<ellipse fill="none" stroke="black" cx="916" cy="-402" rx="42.4939" ry="18"/>
<text text-anchor="middle" x="916" y="-398.3" font-family="Times,serif" font-size="14.00">config_h</text>
</g>
<!-- global_h -->
<g id="node11" class="node"><title>global_h</title>
<ellipse fill="none" stroke="black" cx="851" cy="-330" rx="41.6928" ry="18"/>
<text text-anchor="middle" x="851" y="-326.3" font-family="Times,serif" font-size="14.00">global_h</text>
</g>
<!-- config_h&#45;&gt;global_h -->
<g id="edge96" class="edge"><title>config_h&#45;&gt;global_h</title>
<path fill="none" stroke="black" d="M901.25,-385.116C892.893,-376.116 882.277,-364.682 872.957,-354.646"/>
<polygon fill="black" stroke="black" points="875.512,-352.253 866.142,-347.307 870.382,-357.017 875.512,-352.253"/>
</g>
<!-- config_h&#45;&gt;commit_c -->
<g id="edge2" class="edge"><title>config_h&#45;&gt;commit_c</title>
<path fill="none" stroke="black" d="M942.144,-387.836C947.328,-386.286 952.762,-384.928 958,-384 1228.78,-336.005 1921.42,-375.921 2195,-348 2337.77,-333.43 2420.74,-401.923 2513,-292 2530.14,-271.574 2531.61,-251.097 2513,-232 2482.82,-201.037 1777.55,-219.648 1735,-212 1725.51,-210.295 1715.59,-207.572 1706.42,-204.54"/>
<polygon fill="black" stroke="black" points="1707.43,-201.183 1696.84,-201.16 1705.1,-207.785 1707.43,-201.183"/>
</g>
<!-- config_h&#45;&gt;commit_c -->
<g id="edge11" class="edge"><title>config_h&#45;&gt;commit_c</title>
<path fill="none" stroke="black" d="M949.598,-391.032C958.191,-388.23 967.362,-385.531 976,-384 1246.78,-336.005 1939.42,-375.921 2213,-348 2355.77,-333.43 2438.74,-401.923 2531,-292 2548.14,-271.574 2549.61,-251.097 2531,-232 2500.82,-201.037 1795.55,-219.648 1753,-212 1740.52,-209.756 1727.28,-205.752 1715.1,-201.597"/>
<polygon fill="black" stroke="black" points="1716.19,-198.27 1705.59,-198.263 1713.87,-204.875 1716.19,-198.27"/>
</g>
<!-- config_h&#45;&gt;debug_h -->
<g id="edge91" class="edge"><title>config_h&#45;&gt;debug_h</title>
<path fill="none" stroke="black" d="M946.387,-389.372C953.087,-387.232 960.212,-385.274 967,-384 1286.27,-324.083 1373.09,-372.49 1697,-348 1941.57,-329.509 2002.85,-324.136 2246,-292 2299.52,-284.927 2360.62,-274.699 2401.69,-267.509"/>
<polygon fill="black" stroke="black" points="2402.44,-270.93 2411.68,-265.75 2401.23,-264.036 2402.44,-270.93"/>
</g>
<!-- config_h&#45;&gt;pdarun_c -->
<g id="edge20" class="edge"><title>config_h&#45;&gt;pdarun_c</title>
<path fill="none" stroke="black" d="M946.376,-389.315C953.077,-387.179 960.205,-385.237 967,-384 1172.44,-346.608 1697.63,-361.773 1906,-348 2038.74,-339.226 2412.44,-390.366 2502,-292 2519.95,-272.282 2520.67,-251.04 2502,-232 2482.12,-211.727 1507.71,-218.189 1480,-212 1472.78,-210.389 1465.36,-207.812 1458.38,-204.913"/>
<polygon fill="black" stroke="black" points="1459.74,-201.689 1449.19,-200.819 1456.9,-208.084 1459.74,-201.689"/>
</g>
<!-- program_c -->
<g id="node44" class="node"><title>program_c</title>
<ellipse fill="none" stroke="black" cx="1805" cy="-186" rx="49.2915" ry="18"/>
<text text-anchor="middle" x="1805" y="-182.3" font-family="Times,serif" font-size="14.00">program_c</text>
</g>
<!-- config_h&#45;&gt;program_c -->
<g id="edge59" class="edge"><title>config_h&#45;&gt;program_c</title>
<path fill="none" stroke="black" d="M946.093,-389.336C952.873,-387.169 960.105,-385.209 967,-384 1275.72,-329.849 2068,-400.548 2377,-348 2457.09,-334.38 2503.16,-357.658 2551,-292 2566.7,-270.448 2569.58,-251.128 2551,-232 2524.36,-204.571 1900.33,-220.271 1863,-212 1855.79,-210.402 1848.35,-207.914 1841.31,-205.114"/>
<polygon fill="black" stroke="black" points="1842.59,-201.854 1832.02,-201.158 1839.85,-208.295 1842.59,-201.854"/>
</g>
<!-- cstring_h -->
<g id="node6" class="node"><title>cstring_h</title>
<ellipse fill="none" stroke="black" cx="991" cy="-330" rx="43.5923" ry="18"/>
<text text-anchor="middle" x="991" y="-326.3" font-family="Times,serif" font-size="14.00">cstring_h</text>
</g>
<!-- cstring_h&#45;&gt;compiler_h -->
<g id="edge78" class="edge"><title>cstring_h&#45;&gt;compiler_h</title>
<path fill="none" stroke="black" d="M994.239,-311.956C997.221,-290.89 998.84,-255.014 981,-232 965.32,-211.772 950.817,-221.368 927,-212 920.72,-209.53 914.101,-206.85 907.643,-204.193"/>
<polygon fill="black" stroke="black" points="908.933,-200.939 898.355,-200.343 906.252,-207.405 908.933,-200.939"/>
</g>
<!-- parsetree_h -->
<g id="node17" class="node"><title>parsetree_h</title>
<ellipse fill="none" stroke="black" cx="921" cy="-258" rx="51.1914" ry="18"/>
<text text-anchor="middle" x="921" y="-254.3" font-family="Times,serif" font-size="14.00">parsetree_h</text>
</g>
<!-- cstring_h&#45;&gt;parsetree_h -->
<g id="edge106" class="edge"><title>cstring_h&#45;&gt;parsetree_h</title>
<path fill="none" stroke="black" d="M975.116,-313.116C966.116,-304.116 954.682,-292.682 944.646,-282.646"/>
<polygon fill="black" stroke="black" points="946.853,-279.903 937.307,-275.307 941.903,-284.853 946.853,-279.903"/>
</g>
<!-- defs_h -->
<g id="node7" class="node"><title>defs_h</title>
<ellipse fill="none" stroke="black" cx="266" cy="-402" rx="34.394" ry="18"/>
<text text-anchor="middle" x="266" y="-398.3" font-family="Times,serif" font-size="14.00">defs_h</text>
</g>
<!-- defs_h&#45;&gt;global_h -->
<g id="edge97" class="edge"><title>defs_h&#45;&gt;global_h</title>
<path fill="none" stroke="black" d="M291.543,-389.555C297.197,-387.403 303.226,-385.395 309,-384 401.445,-361.673 683.313,-341.706 799.797,-334.179"/>
<polygon fill="black" stroke="black" points="800.127,-337.665 809.882,-333.532 799.678,-330.679 800.127,-337.665"/>
</g>
<!-- dotgen_h -->
<g id="node8" class="node"><title>dotgen_h</title>
<ellipse fill="none" stroke="black" cx="812" cy="-402" rx="43.5923" ry="18"/>
<text text-anchor="middle" x="812" y="-398.3" font-family="Times,serif" font-size="14.00">dotgen_h</text>
</g>
<!-- fsmgraph_h -->
<g id="node10" class="node"><title>fsmgraph_h</title>
<ellipse fill="none" stroke="black" cx="169" cy="-330" rx="53.0913" ry="18"/>
<text text-anchor="middle" x="169" y="-326.3" font-family="Times,serif" font-size="14.00">fsmgraph_h</text>
</g>
<!-- global_h&#45;&gt;compiler_h -->
<g id="edge79" class="edge"><title>global_h&#45;&gt;compiler_h</title>
<path fill="none" stroke="black" d="M852.616,-311.811C854.476,-292.409 857.702,-259.909 861,-232 861.682,-226.227 862.469,-220.046 863.244,-214.171"/>
<polygon fill="black" stroke="black" points="866.737,-214.457 864.601,-204.08 859.8,-213.524 866.737,-214.457"/>
</g>
<!-- global_h&#45;&gt;parsetree_h -->
<g id="edge107" class="edge"><title>global_h&#45;&gt;parsetree_h</title>
<path fill="none" stroke="black" d="M866.884,-313.116C875.884,-304.116 887.318,-292.682 897.354,-282.646"/>
<polygon fill="black" stroke="black" points="900.097,-284.853 904.693,-275.307 895.147,-279.903 900.097,-284.853"/>
</g>
<!-- internal_h&#45;&gt;compiler_h -->
<g id="edge80" class="edge"><title>internal_h&#45;&gt;compiler_h</title>
<path fill="none" stroke="black" d="M1026.65,-243.997C1016.98,-239.92 1006.11,-235.56 996,-232 965.882,-221.399 957.118,-222.601 927,-212 920.492,-209.709 913.67,-207.087 907.056,-204.421"/>
<polygon fill="black" stroke="black" points="908.153,-201.088 897.574,-200.52 905.489,-207.562 908.153,-201.088"/>
</g>
<!-- internal_h&#45;&gt;commit_c -->
<g id="edge3" class="edge"><title>internal_h&#45;&gt;commit_c</title>
<path fill="none" stroke="black" d="M1092.08,-246.621C1115.14,-241.365 1145.56,-235.394 1173,-232 1348.77,-210.263 1396.13,-240.07 1571,-212 1588.28,-209.226 1606.99,-204.414 1623.57,-199.747"/>
<polygon fill="black" stroke="black" points="1624.94,-202.996 1633.59,-196.88 1623.02,-196.266 1624.94,-202.996"/>
</g>
<!-- internal_h&#45;&gt;commit_c -->
<g id="edge12" class="edge"><title>internal_h&#45;&gt;commit_c</title>
<path fill="none" stroke="black" d="M1096.35,-249.095C1123.25,-243.359 1159.13,-235.941 1191,-232 1366.77,-210.263 1414.13,-240.07 1589,-212 1602.79,-209.786 1617.49,-206.273 1630.63,-202.573"/>
<polygon fill="black" stroke="black" points="1631.73,-205.9 1640.34,-199.725 1629.76,-199.183 1631.73,-205.9"/>
</g>
<!-- internal_h&#45;&gt;iter_c -->
<g id="edge10" class="edge"><title>internal_h&#45;&gt;iter_c</title>
<path fill="none" stroke="black" d="M1056.79,-239.683C1063.92,-216.899 1085.01,-177.682 1117,-160 1177.61,-126.497 1360.31,-154.65 1428,-140 1441.13,-137.157 1455.13,-132.161 1467.54,-127.379"/>
<polygon fill="black" stroke="black" points="1469.08,-130.538 1477.12,-123.635 1466.53,-124.019 1469.08,-130.538"/>
</g>
<!-- internal_h&#45;&gt;iter_c -->
<g id="edge18" class="edge"><title>internal_h&#45;&gt;iter_c</title>
<path fill="none" stroke="black" d="M1068.5,-240.453C1081.44,-217.793 1102.65,-177.883 1135,-160 1195.61,-126.497 1378.31,-154.65 1446,-140 1455.22,-138.004 1464.87,-134.946 1473.61,-131.646"/>
<polygon fill="black" stroke="black" points="1475.04,-134.841 1483.01,-127.861 1472.43,-128.348 1475.04,-134.841"/>
</g>
<!-- map_h -->
<g id="node37" class="node"><title>map_h</title>
<ellipse fill="none" stroke="black" cx="1390" cy="-114" rx="35.194" ry="18"/>
<text text-anchor="middle" x="1390" y="-110.3" font-family="Times,serif" font-size="14.00">map_h</text>
</g>
<!-- internal_h&#45;&gt;map_h -->
<g id="edge103" class="edge"><title>internal_h&#45;&gt;map_h</title>
<path fill="none" stroke="black" d="M1052.93,-239.951C1050.1,-218.198 1049.03,-180.896 1070,-160 1074.87,-155.148 1259.92,-131.34 1346.35,-120.452"/>
<polygon fill="black" stroke="black" points="1346.9,-123.911 1356.38,-119.191 1346.02,-116.966 1346.9,-123.911"/>
</g>
<!-- internal_h&#45;&gt;pdarun_c -->
<g id="edge21" class="edge"><title>internal_h&#45;&gt;pdarun_c</title>
<path fill="none" stroke="black" d="M1092.06,-246.634C1110.47,-241.64 1133.29,-235.903 1154,-232 1225.29,-218.562 1244.56,-224.642 1316,-212 1336.56,-208.361 1359.09,-203.316 1378.23,-198.71"/>
<polygon fill="black" stroke="black" points="1379.31,-202.051 1388.19,-196.28 1377.65,-195.251 1379.31,-202.051"/>
</g>
<!-- internal_h&#45;&gt;struct_c -->
<g id="edge28" class="edge"><title>internal_h&#45;&gt;struct_c</title>
<path fill="none" stroke="black" d="M1087.22,-271.293C1114.14,-281.996 1154.36,-296.18 1191,-302 1232.7,-308.624 1530.93,-315.297 1571,-302 1583.7,-297.787 1595.87,-289.662 1605.84,-281.528"/>
<polygon fill="black" stroke="black" points="1608.37,-283.967 1613.65,-274.78 1603.79,-278.671 1608.37,-283.967"/>
</g>
<!-- internal_h&#45;&gt;tree_h -->
<g id="edge110" class="edge"><title>internal_h&#45;&gt;tree_h</title>
<path fill="none" stroke="black" d="M1087.22,-271.293C1114.14,-281.996 1154.36,-296.18 1191,-302 1254.21,-312.041 1703.2,-307.072 1767,-302 1851.05,-295.319 1948.19,-277.325 2001.59,-266.529"/>
<polygon fill="black" stroke="black" points="2002.57,-269.901 2011.67,-264.472 2001.17,-263.043 2002.57,-269.901"/>
</g>
<!-- keyops_h -->
<g id="node13" class="node"><title>keyops_h</title>
<ellipse fill="none" stroke="black" cx="169" cy="-402" rx="44.393" ry="18"/>
<text text-anchor="middle" x="169" y="-398.3" font-family="Times,serif" font-size="14.00">keyops_h</text>
</g>
<!-- keyops_h&#45;&gt;compiler_h -->
<g id="edge81" class="edge"><title>keyops_h&#45;&gt;compiler_h</title>
<path fill="none" stroke="black" d="M202.633,-390.158C209.362,-388.061 216.393,-385.92 223,-384 282.63,-366.672 298.421,-365.504 358,-348 519.69,-300.496 558.155,-282.292 719,-232 752.476,-221.533 790.315,-210.034 819.353,-201.28"/>
<polygon fill="black" stroke="black" points="820.669,-204.539 829.235,-198.304 818.65,-197.836 820.669,-204.539"/>
</g>
<!-- keyops_h&#45;&gt;fsmcodegen_h -->
<g id="edge93" class="edge"><title>keyops_h&#45;&gt;fsmcodegen_h</title>
<path fill="none" stroke="black" d="M190.299,-386.06C229.04,-357.47 310.068,-290.806 343,-212 352.296,-189.755 354.344,-162.243 354.331,-142.207"/>
<polygon fill="black" stroke="black" points="357.831,-142.14 354.155,-132.203 350.832,-142.263 357.831,-142.14"/>
</g>
<!-- keyops_h&#45;&gt;fsmgraph_h -->
<g id="edge95" class="edge"><title>keyops_h&#45;&gt;fsmgraph_h</title>
<path fill="none" stroke="black" d="M169,-383.697C169,-375.983 169,-366.712 169,-358.112"/>
<polygon fill="black" stroke="black" points="172.5,-358.104 169,-348.104 165.5,-358.104 172.5,-358.104"/>
</g>
<!-- keyops_h&#45;&gt;global_h -->
<g id="edge98" class="edge"><title>keyops_h&#45;&gt;global_h</title>
<path fill="none" stroke="black" d="M201.252,-389.573C208.342,-387.42 215.864,-385.406 223,-384 278.965,-372.97 660.454,-344.742 800.004,-334.653"/>
<polygon fill="black" stroke="black" points="800.295,-338.141 810.017,-333.93 799.791,-331.16 800.295,-338.141"/>
</g>
<!-- loadcolm_h -->
<g id="node14" class="node"><title>loadcolm_h</title>
<ellipse fill="none" stroke="black" cx="1094" cy="-114" rx="52.7911" ry="18"/>
<text text-anchor="middle" x="1094" y="-110.3" font-family="Times,serif" font-size="14.00">loadcolm_h</text>
</g>
<!-- parser_h -->
<g id="node16" class="node"><title>parser_h</title>
<ellipse fill="none" stroke="black" cx="977" cy="-186" rx="40.8928" ry="18"/>
<text text-anchor="middle" x="977" y="-182.3" font-family="Times,serif" font-size="14.00">parser_h</text>
</g>
<!-- parser_h&#45;&gt;consinit_h -->
<g id="edge88" class="edge"><title>parser_h&#45;&gt;consinit_h</title>
<path fill="none" stroke="black" d="M954.335,-170.834C937.966,-160.604 915.622,-146.639 897.375,-135.234"/>
<polygon fill="black" stroke="black" points="899.126,-132.201 888.791,-129.869 895.416,-138.137 899.126,-132.201"/>
</g>
<!-- parser_h&#45;&gt;loadcolm_h -->
<g id="edge100" class="edge"><title>parser_h&#45;&gt;loadcolm_h</title>
<path fill="none" stroke="black" d="M1000.4,-171.003C1017.55,-160.739 1041.1,-146.65 1060.28,-135.172"/>
<polygon fill="black" stroke="black" points="1062.24,-138.079 1069.03,-129.941 1058.65,-132.072 1062.24,-138.079"/>
</g>
<!-- parser_h&#45;&gt;loadinit_h -->
<g id="edge102" class="edge"><title>parser_h&#45;&gt;loadinit_h</title>
<path fill="none" stroke="black" d="M977,-167.697C977,-159.983 977,-150.712 977,-142.112"/>
<polygon fill="black" stroke="black" points="980.5,-142.104 977,-132.104 973.5,-142.104 980.5,-142.104"/>
</g>
<!-- parsetree_h&#45;&gt;compiler_h -->
<g id="edge82" class="edge"><title>parsetree_h&#45;&gt;compiler_h</title>
<path fill="none" stroke="black" d="M908.203,-240.411C901.545,-231.781 893.277,-221.062 885.898,-211.497"/>
<polygon fill="black" stroke="black" points="888.585,-209.25 879.705,-203.47 883.042,-213.526 888.585,-209.25"/>
</g>
<!-- pcheck_h -->
<g id="node18" class="node"><title>pcheck_h</title>
<ellipse fill="none" stroke="black" cx="619" cy="-402" rx="44.393" ry="18"/>
<text text-anchor="middle" x="619" y="-398.3" font-family="Times,serif" font-size="14.00">pcheck_h</text>
</g>
<!-- pdacodegen_h -->
<g id="node19" class="node"><title>pdacodegen_h</title>
<ellipse fill="none" stroke="black" cx="495" cy="-402" rx="61.99" ry="18"/>
<text text-anchor="middle" x="495" y="-398.3" font-family="Times,serif" font-size="14.00">pdacodegen_h</text>
</g>
<!-- pdagraph_h -->
<g id="node20" class="node"><title>pdagraph_h</title>
<ellipse fill="none" stroke="black" cx="780" cy="-258" rx="51.9908" ry="18"/>
<text text-anchor="middle" x="780" y="-254.3" font-family="Times,serif" font-size="14.00">pdagraph_h</text>
</g>
<!-- pdagraph_h&#45;&gt;compiler_h -->
<g id="edge83" class="edge"><title>pdagraph_h&#45;&gt;compiler_h</title>
<path fill="none" stroke="black" d="M799.742,-241.116C811.421,-231.718 826.397,-219.669 839.252,-209.326"/>
<polygon fill="black" stroke="black" points="841.739,-211.817 847.336,-202.821 837.351,-206.363 841.739,-211.817"/>
</g>
<!-- redbuild_h -->
<g id="node21" class="node"><title>redbuild_h</title>
<ellipse fill="none" stroke="black" cx="367" cy="-402" rx="48.9926" ry="18"/>
<text text-anchor="middle" x="367" y="-398.3" font-family="Times,serif" font-size="14.00">redbuild_h</text>
</g>
<!-- redfsm_h -->
<g id="node22" class="node"><title>redfsm_h</title>
<ellipse fill="none" stroke="black" cx="290" cy="-186" rx="44.393" ry="18"/>
<text text-anchor="middle" x="290" y="-182.3" font-family="Times,serif" font-size="14.00">redfsm_h</text>
</g>
<!-- redfsm_h&#45;&gt;fsmcodegen_h -->
<g id="edge94" class="edge"><title>redfsm_h&#45;&gt;fsmcodegen_h</title>
<path fill="none" stroke="black" d="M304.612,-168.765C312.528,-159.969 322.465,-148.928 331.27,-139.144"/>
<polygon fill="black" stroke="black" points="333.942,-141.408 338.03,-131.633 328.739,-136.725 333.942,-141.408"/>
</g>
<!-- rtvector_h -->
<g id="node23" class="node"><title>rtvector_h</title>
<ellipse fill="none" stroke="black" cx="1023" cy="-402" rx="46.5926" ry="18"/>
<text text-anchor="middle" x="1023" y="-398.3" font-family="Times,serif" font-size="14.00">rtvector_h</text>
</g>
<!-- codevect_c -->
<g id="node26" class="node"><title>codevect_c</title>
<ellipse fill="none" stroke="black" cx="2342" cy="-186" rx="50.0912" ry="18"/>
<text text-anchor="middle" x="2342" y="-182.3" font-family="Times,serif" font-size="14.00">codevect_c</text>
</g>
<!-- rtvector_h&#45;&gt;codevect_c -->
<g id="edge33" class="edge"><title>rtvector_h&#45;&gt;codevect_c</title>
<path fill="none" stroke="black" d="M1056.41,-389.26C1063.77,-387.127 1071.58,-385.2 1079,-384 1383.81,-334.709 2169.76,-427.96 2468,-348 2518.33,-334.506 2544.37,-336.788 2571,-292 2584.63,-269.079 2588.75,-251.898 2571,-232 2544.94,-202.793 2433.69,-222.579 2396,-212 2389.93,-210.296 2383.68,-207.983 2377.69,-205.449"/>
<polygon fill="black" stroke="black" points="2379.1,-202.246 2368.55,-201.341 2376.24,-208.632 2379.1,-202.246"/>
</g>
<!-- type_h -->
<g id="node24" class="node"><title>type_h</title>
<ellipse fill="none" stroke="black" cx="716" cy="-402" rx="34.394" ry="18"/>
<text text-anchor="middle" x="716" y="-398.3" font-family="Times,serif" font-size="14.00">type_h</text>
</g>
<!-- bytecode_h -->
<g id="node31" class="node"><title>bytecode_h</title>
<ellipse fill="none" stroke="red" cx="2183" cy="-258" rx="51.1914" ry="18"/>
<text text-anchor="middle" x="2183" y="-254.3" font-family="Times,serif" font-size="14.00">bytecode_h</text>
</g>
<!-- type_h&#45;&gt;bytecode_h -->
<g id="edge75" class="edge"><title>type_h&#45;&gt;bytecode_h</title>
<path fill="none" stroke="black" d="M741.044,-389.55C746.831,-387.342 753.042,-385.311 759,-384 1035.07,-323.261 1111.99,-367.402 1394,-348 1701.83,-326.821 1783.86,-354.612 2086,-292 2104.49,-288.168 2124.33,-281.839 2141.21,-275.743"/>
<polygon fill="black" stroke="black" points="2142.62,-278.955 2150.78,-272.201 2140.19,-272.39 2142.62,-278.955"/>
</g>
<!-- type_h&#45;&gt;tree_h -->
<g id="edge111" class="edge"><title>type_h&#45;&gt;tree_h</title>
<path fill="none" stroke="black" d="M741.53,-389.502C747.185,-387.354 753.217,-385.36 759,-384 941.375,-341.106 992.399,-364.749 1179,-348 1444.43,-324.176 1511.07,-320.853 1776,-292 1855.42,-283.351 1947.94,-271.462 2000.28,-264.568"/>
<polygon fill="black" stroke="black" points="2001.05,-267.996 2010.51,-263.217 2000.13,-261.056 2001.05,-267.996"/>
</g>
<!-- version_h -->
<g id="node25" class="node"><title>version_h</title>
<ellipse fill="none" stroke="black" cx="61" cy="-402" rx="45.4919" ry="18"/>
<text text-anchor="middle" x="61" y="-398.3" font-family="Times,serif" font-size="14.00">version_h</text>
</g>
<!-- string_c -->
<g id="node28" class="node"><title>string_c</title>
<ellipse fill="none" stroke="black" cx="1605" cy="-114" rx="38.9931" ry="18"/>
<text text-anchor="middle" x="1605" y="-110.3" font-family="Times,serif" font-size="14.00">string_c</text>
</g>
<!-- list_c -->
<g id="node30" class="node"><title>list_c</title>
<ellipse fill="none" stroke="black" cx="1956" cy="-114" rx="29.795" ry="18"/>
<text text-anchor="middle" x="1956" y="-110.3" font-family="Times,serif" font-size="14.00">list_c</text>
</g>
<!-- bytecode_h&#45;&gt;compiler_h -->
<g id="edge84" class="edge"><title>bytecode_h&#45;&gt;compiler_h</title>
<path fill="none" stroke="black" d="M2146.1,-245.31C2128.16,-240.19 2106.16,-234.733 2086,-232 1958.37,-214.697 1053.07,-238.348 927,-212 919.558,-210.445 911.877,-207.976 904.599,-205.183"/>
<polygon fill="black" stroke="black" points="905.563,-201.796 894.983,-201.229 902.9,-208.269 905.563,-201.796"/>
</g>
<!-- bytecode_h&#45;&gt;parsetree_h -->
<g id="edge108" class="edge"><title>bytecode_h&#45;&gt;parsetree_h</title>
<path fill="none" stroke="black" d="M2154.73,-273.336C2133.91,-283.719 2104.55,-296.509 2077,-302 2018.87,-313.586 1067.72,-315.489 1010,-302 990.638,-297.475 970.653,-288.094 954.539,-279.151"/>
<polygon fill="black" stroke="black" points="955.947,-275.924 945.532,-273.977 952.46,-281.993 955.947,-275.924"/>
</g>
<!-- bytecode_h&#45;&gt;commit_c -->
<g id="edge4" class="edge"><title>bytecode_h&#45;&gt;commit_c</title>
<path fill="none" stroke="black" d="M2142.18,-246.83C2122.48,-241.499 2098.65,-235.39 2077,-232 1926.57,-208.445 1884.4,-241.38 1735,-212 1725.64,-210.159 1715.83,-207.406 1706.75,-204.393"/>
<polygon fill="black" stroke="black" points="1707.83,-201.062 1697.23,-201.05 1705.51,-207.667 1707.83,-201.062"/>
</g>
<!-- bytecode_h&#45;&gt;commit_c -->
<g id="edge13" class="edge"><title>bytecode_h&#45;&gt;commit_c</title>
<path fill="none" stroke="black" d="M2149.24,-244.246C2132.97,-239.628 2113.21,-234.852 2095,-232 1944.57,-208.445 1902.4,-241.38 1753,-212 1740.66,-209.573 1727.55,-205.563 1715.45,-201.458"/>
<polygon fill="black" stroke="black" points="1716.59,-198.15 1706,-198.173 1714.3,-204.762 1716.59,-198.15"/>
</g>
<!-- bytecode_h&#45;&gt;string_c -->
<g id="edge66" class="edge"><title>bytecode_h&#45;&gt;string_c</title>
<path fill="none" stroke="black" d="M2157.99,-242.218C2146.26,-234.361 2132.75,-223.872 2123,-212 2106.72,-192.186 2119.06,-174.624 2098,-160 2088.92,-153.697 1775.97,-128.457 1653.47,-118.792"/>
<polygon fill="black" stroke="black" points="1653.5,-115.283 1643.26,-117.987 1652.95,-122.262 1653.5,-115.283"/>
</g>
<!-- bytecode_h&#45;&gt;iter_c -->
<g id="edge45" class="edge"><title>bytecode_h&#45;&gt;iter_c</title>
<path fill="none" stroke="black" d="M2146,-245.487C2129.01,-238.402 2110.01,-227.621 2098,-212 2083.55,-193.195 2104.28,-175.114 2086,-160 2040.67,-122.519 1614.19,-153.735 1557,-140 1549.02,-138.083 1540.79,-134.948 1533.24,-131.536"/>
<polygon fill="black" stroke="black" points="1534.63,-128.321 1524.1,-127.135 1531.59,-134.628 1534.63,-128.321"/>
</g>
<!-- bytecode_h&#45;&gt;list_c -->
<g id="edge48" class="edge"><title>bytecode_h&#45;&gt;list_c</title>
<path fill="none" stroke="black" d="M2211.77,-243.078C2223.74,-235.652 2236.36,-225.277 2243,-212 2253.34,-191.329 2258.02,-177.562 2243,-160 2211.74,-123.454 2067.78,-116.385 1996.38,-115.157"/>
<polygon fill="black" stroke="black" points="1996.03,-111.652 1985.98,-115.011 1995.93,-118.651 1996.03,-111.652"/>
</g>
<!-- bytecode_c -->
<g id="node32" class="node"><title>bytecode_c</title>
<ellipse fill="none" stroke="black" cx="2183" cy="-186" rx="50.8918" ry="18"/>
<text text-anchor="middle" x="2183" y="-182.3" font-family="Times,serif" font-size="14.00">bytecode_c</text>
</g>
<!-- bytecode_h&#45;&gt;bytecode_c -->
<g id="edge30" class="edge"><title>bytecode_h&#45;&gt;bytecode_c</title>
<path fill="none" stroke="black" d="M2183,-239.697C2183,-231.983 2183,-222.712 2183,-214.112"/>
<polygon fill="black" stroke="black" points="2186.5,-214.104 2183,-204.104 2179.5,-214.104 2186.5,-214.104"/>
</g>
<!-- input_c -->
<g id="node36" class="node"><title>input_c</title>
<ellipse fill="none" stroke="black" cx="1529" cy="-186" rx="37.0935" ry="18"/>
<text text-anchor="middle" x="1529" y="-182.3" font-family="Times,serif" font-size="14.00">input_c</text>
</g>
<!-- bytecode_h&#45;&gt;input_c -->
<g id="edge37" class="edge"><title>bytecode_h&#45;&gt;input_c</title>
<path fill="none" stroke="black" d="M2145.61,-245.371C2127.75,-240.332 2105.96,-234.925 2086,-232 1972.46,-215.363 1679.86,-245.16 1570,-212 1565.66,-210.691 1561.32,-208.811 1557.17,-206.661"/>
<polygon fill="black" stroke="black" points="1558.87,-203.605 1548.46,-201.643 1555.38,-209.67 1558.87,-203.605"/>
</g>
<!-- map_c -->
<g id="node38" class="node"><title>map_c</title>
<ellipse fill="none" stroke="black" cx="1389" cy="-42" rx="34.394" ry="18"/>
<text text-anchor="middle" x="1389" y="-38.3" font-family="Times,serif" font-size="14.00">map_c</text>
</g>
<!-- bytecode_h&#45;&gt;map_c -->
<g id="edge52" class="edge"><title>bytecode_h&#45;&gt;map_c</title>
<path fill="none" stroke="black" d="M2222.5,-246.233C2239.62,-239.389 2258.01,-228.593 2268,-212 2275.11,-200.197 2277.49,-97.9883 2268,-88 2239.01,-57.4848 1608.56,-46.1601 1433.65,-43.599"/>
<polygon fill="black" stroke="black" points="1433.56,-40.0975 1423.51,-43.453 1433.46,-47.0967 1433.56,-40.0975"/>
</g>
<!-- bytecode_h&#45;&gt;pdarun_c -->
<g id="edge22" class="edge"><title>bytecode_h&#45;&gt;pdarun_c</title>
<path fill="none" stroke="black" d="M2146.08,-245.45C2128.13,-240.362 2106.14,-234.892 2086,-232 1952.63,-212.849 1611.3,-242.25 1480,-212 1472.8,-210.34 1465.38,-207.742 1458.4,-204.835"/>
<polygon fill="black" stroke="black" points="1459.76,-201.612 1449.2,-200.741 1456.91,-208.007 1459.76,-201.612"/>
</g>
<!-- bytecode_h&#45;&gt;program_c -->
<g id="edge60" class="edge"><title>bytecode_h&#45;&gt;program_c</title>
<path fill="none" stroke="black" d="M2145.07,-245.697C2127.28,-240.79 2105.71,-235.4 2086,-232 1987.94,-215.082 1959.46,-236.446 1863,-212 1856.14,-210.263 1849.06,-207.814 1842.3,-205.122"/>
<polygon fill="black" stroke="black" points="1843.26,-201.729 1832.69,-201.059 1840.54,-208.177 1843.26,-201.729"/>
</g>
<!-- bytecode_h&#45;&gt;struct_c -->
<g id="edge29" class="edge"><title>bytecode_h&#45;&gt;struct_c</title>
<path fill="none" stroke="black" d="M2154.73,-273.336C2133.91,-283.719 2104.55,-296.509 2077,-302 2034.39,-310.492 1727.06,-316.2 1686,-302 1673.89,-297.811 1662.41,-289.803 1653.03,-281.753"/>
<polygon fill="black" stroke="black" points="1655.11,-278.917 1645.36,-274.764 1650.39,-284.089 1655.11,-278.917"/>
</g>
<!-- tree_c -->
<g id="node48" class="node"><title>tree_c</title>
<ellipse fill="none" stroke="black" cx="2042" cy="-186" rx="32.4942" ry="18"/>
<text text-anchor="middle" x="2042" y="-182.3" font-family="Times,serif" font-size="14.00">tree_c</text>
</g>
<!-- bytecode_h&#45;&gt;tree_c -->
<g id="edge71" class="edge"><title>bytecode_h&#45;&gt;tree_c</title>
<path fill="none" stroke="black" d="M2149.08,-244.484C2128.1,-236.255 2100.9,-224.687 2078,-212 2075.07,-210.377 2072.09,-208.574 2069.15,-206.7"/>
<polygon fill="black" stroke="black" points="2070.85,-203.628 2060.6,-200.976 2066.96,-209.446 2070.85,-203.628"/>
</g>
<!-- debug_h&#45;&gt;commit_c -->
<g id="edge5" class="edge"><title>debug_h&#45;&gt;commit_c</title>
<path fill="none" stroke="black" d="M2410.05,-252.14C2367.35,-246.369 2297.34,-236.909 2237,-232 2014.45,-213.894 1954.48,-253.047 1735,-212 1725.52,-210.228 1715.61,-207.476 1706.44,-204.436"/>
<polygon fill="black" stroke="black" points="1707.45,-201.079 1696.86,-201.056 1705.12,-207.681 1707.45,-201.079"/>
</g>
<!-- debug_h&#45;&gt;commit_c -->
<g id="edge14" class="edge"><title>debug_h&#45;&gt;commit_c</title>
<path fill="none" stroke="black" d="M2411.76,-250.481C2372.7,-244.686 2309.86,-236.463 2255,-232 2032.45,-213.894 1972.48,-253.047 1753,-212 1740.53,-209.668 1727.3,-205.641 1715.12,-201.492"/>
<polygon fill="black" stroke="black" points="1716.21,-198.164 1705.61,-198.168 1713.9,-204.772 1716.21,-198.164"/>
</g>
<!-- debug_h&#45;&gt;bytecode_c -->
<g id="edge31" class="edge"><title>debug_h&#45;&gt;bytecode_c</title>
<path fill="none" stroke="black" d="M2410.61,-251.38C2367.81,-244.527 2296.87,-231.404 2238,-212 2232.26,-210.107 2226.31,-207.799 2220.54,-205.358"/>
<polygon fill="black" stroke="black" points="2221.64,-202.015 2211.08,-201.176 2218.81,-208.418 2221.64,-202.015"/>
</g>
<!-- debug_c -->
<g id="node34" class="node"><title>debug_c</title>
<ellipse fill="none" stroke="black" cx="2450" cy="-186" rx="40.0939" ry="18"/>
<text text-anchor="middle" x="2450" y="-182.3" font-family="Times,serif" font-size="14.00">debug_c</text>
</g>
<!-- debug_h&#45;&gt;debug_c -->
<g id="edge35" class="edge"><title>debug_h&#45;&gt;debug_c</title>
<path fill="none" stroke="black" d="M2449.25,-239.697C2449.36,-231.983 2449.49,-222.712 2449.61,-214.112"/>
<polygon fill="black" stroke="black" points="2453.11,-214.153 2449.76,-204.104 2446.11,-214.053 2453.11,-214.153"/>
</g>
<!-- debug_h&#45;&gt;input_c -->
<g id="edge38" class="edge"><title>debug_h&#45;&gt;input_c</title>
<path fill="none" stroke="black" d="M2410.94,-251.24C2370.23,-245.331 2303.71,-236.398 2246,-232 2171.07,-226.29 1642.04,-233.385 1570,-212 1565.66,-210.711 1561.31,-208.842 1557.16,-206.698"/>
<polygon fill="black" stroke="black" points="1558.86,-203.642 1548.45,-201.684 1555.37,-209.708 1558.86,-203.642"/>
</g>
<!-- debug_h&#45;&gt;pdarun_c -->
<g id="edge23" class="edge"><title>debug_h&#45;&gt;pdarun_c</title>
<path fill="none" stroke="black" d="M2410.95,-251.201C2370.24,-245.258 2303.72,-236.298 2246,-232 2076.19,-219.356 1646.06,-249.657 1480,-212 1472.79,-210.365 1465.37,-207.778 1458.39,-204.875"/>
<polygon fill="black" stroke="black" points="1459.75,-201.652 1449.19,-200.781 1456.91,-208.046 1459.75,-201.652"/>
</g>
<!-- pool_c -->
<g id="node42" class="node"><title>pool_c</title>
<ellipse fill="none" stroke="black" cx="1268" cy="-186" rx="34.394" ry="18"/>
<text text-anchor="middle" x="1268" y="-182.3" font-family="Times,serif" font-size="14.00">pool_c</text>
</g>
<!-- debug_h&#45;&gt;pool_c -->
<g id="edge56" class="edge"><title>debug_h&#45;&gt;pool_c</title>
<path fill="none" stroke="black" d="M2410.95,-251.163C2370.24,-245.188 2303.73,-236.202 2246,-232 2051.35,-217.833 1561.42,-238.05 1368,-212 1347.5,-209.239 1325.12,-203.874 1306.75,-198.82"/>
<polygon fill="black" stroke="black" points="1307.56,-195.413 1296.98,-196.062 1305.66,-202.149 1307.56,-195.413"/>
</g>
<!-- debug_h&#45;&gt;program_c -->
<g id="edge61" class="edge"><title>debug_h&#45;&gt;program_c</title>
<path fill="none" stroke="black" d="M2410.55,-251.446C2369.78,-245.75 2303.48,-237.034 2246,-232 2076.2,-217.129 2028.98,-250.789 1863,-212 1855.88,-210.336 1848.53,-207.842 1841.56,-205.064"/>
<polygon fill="black" stroke="black" points="1842.92,-201.837 1832.34,-201.151 1840.18,-208.281 1842.92,-201.837"/>
</g>
<!-- debug_h&#45;&gt;tree_c -->
<g id="edge72" class="edge"><title>debug_h&#45;&gt;tree_c</title>
<path fill="none" stroke="black" d="M2410.27,-252.089C2329.42,-241.78 2147.83,-218.312 2120,-212 2106.08,-208.842 2091.08,-204.315 2077.98,-199.979"/>
<polygon fill="black" stroke="black" points="2078.99,-196.625 2068.4,-196.727 2076.74,-203.254 2078.99,-196.625"/>
</g>
<!-- input_h -->
<g id="node35" class="node"><title>input_h</title>
<ellipse fill="none" stroke="black" cx="1530" cy="-258" rx="37.8943" ry="18"/>
<text text-anchor="middle" x="1530" y="-254.3" font-family="Times,serif" font-size="14.00">input_h</text>
</g>
<!-- input_h&#45;&gt;input_c -->
<g id="edge39" class="edge"><title>input_h&#45;&gt;input_c</title>
<path fill="none" stroke="black" d="M1529.75,-239.697C1529.64,-231.983 1529.51,-222.712 1529.39,-214.112"/>
<polygon fill="black" stroke="black" points="1532.89,-214.053 1529.24,-204.104 1525.89,-214.153 1532.89,-214.053"/>
</g>
<!-- input_h&#45;&gt;tree_h -->
<g id="edge112" class="edge"><title>input_h&#45;&gt;tree_h</title>
<path fill="none" stroke="black" d="M1545.87,-274.333C1556.89,-284.451 1572.51,-296.527 1589,-302 1665.07,-327.241 1905.03,-284.851 2001.38,-266.164"/>
<polygon fill="black" stroke="black" points="2002.18,-269.573 2011.32,-264.22 2000.84,-262.703 2002.18,-269.573"/>
</g>
<!-- map_h&#45;&gt;map_c -->
<g id="edge53" class="edge"><title>map_h&#45;&gt;map_c</title>
<path fill="none" stroke="black" d="M1389.75,-95.6966C1389.64,-87.9827 1389.51,-78.7125 1389.39,-70.1124"/>
<polygon fill="black" stroke="black" points="1392.89,-70.0533 1389.24,-60.1043 1385.89,-70.1533 1392.89,-70.0533"/>
</g>
<!-- pdarun_h -->
<g id="node39" class="node"><title>pdarun_h</title>
<ellipse fill="none" stroke="black" cx="1424" cy="-258" rx="44.393" ry="18"/>
<text text-anchor="middle" x="1424" y="-254.3" font-family="Times,serif" font-size="14.00">pdarun_h</text>
</g>
<!-- pdarun_h&#45;&gt;compiler_h -->
<g id="edge85" class="edge"><title>pdarun_h&#45;&gt;compiler_h</title>
<path fill="none" stroke="black" d="M1388.3,-247.068C1367.4,-241.673 1340.4,-235.423 1316,-232 1144.56,-207.942 1095.83,-250.299 927,-212 919.661,-210.335 912.074,-207.841 904.866,-205.063"/>
<polygon fill="black" stroke="black" points="905.912,-201.709 895.332,-201.15 903.254,-208.185 905.912,-201.709"/>
</g>
<!-- pdarun_h&#45;&gt;codevect_c -->
<g id="edge34" class="edge"><title>pdarun_h&#45;&gt;codevect_c</title>
<path fill="none" stroke="black" d="M1449.47,-243.087C1458.8,-238.684 1469.62,-234.355 1480,-232 1646.06,-194.343 2077.4,-235.834 2246,-212 2262.51,-209.667 2280.26,-205.524 2295.95,-201.273"/>
<polygon fill="black" stroke="black" points="2297.24,-204.546 2305.93,-198.482 2295.36,-197.804 2297.24,-204.546"/>
</g>
<!-- pdarun_h&#45;&gt;commit_c -->
<g id="edge6" class="edge"><title>pdarun_h&#45;&gt;commit_c</title>
<path fill="none" stroke="black" d="M1445.37,-242.118C1453.31,-238.429 1462.38,-234.749 1471,-232 1514.18,-218.232 1526.9,-222.454 1571,-212 1587.63,-208.057 1605.83,-203.175 1622.15,-198.774"/>
<polygon fill="black" stroke="black" points="1623.3,-202.09 1632.05,-196.109 1621.48,-195.331 1623.3,-202.09"/>
</g>
<!-- pdarun_h&#45;&gt;commit_c -->
<g id="edge15" class="edge"><title>pdarun_h&#45;&gt;commit_c</title>
<path fill="none" stroke="black" d="M1455.56,-245.224C1466.15,-240.581 1477.94,-235.525 1489,-232 1532.18,-218.232 1544.9,-222.454 1589,-212 1601.96,-208.929 1615.86,-205.288 1628.51,-201.748"/>
<polygon fill="black" stroke="black" points="1629.69,-205.051 1638.35,-198.944 1627.77,-198.32 1629.69,-205.051"/>
</g>
<!-- pdarun_h&#45;&gt;string_c -->
<g id="edge67" class="edge"><title>pdarun_h&#45;&gt;string_c</title>
<path fill="none" stroke="black" d="M1393.27,-244.88C1379.23,-237.606 1363.97,-226.839 1356,-212 1345.06,-191.642 1340.55,-177.189 1356,-160 1383.94,-128.917 1502.45,-150.134 1543,-140 1551.75,-137.812 1560.91,-134.648 1569.41,-131.301"/>
<polygon fill="black" stroke="black" points="1570.77,-134.529 1578.68,-127.488 1568.1,-128.055 1570.77,-134.529"/>
</g>
<!-- pdarun_h&#45;&gt;list_c -->
<g id="edge49" class="edge"><title>pdarun_h&#45;&gt;list_c</title>
<path fill="none" stroke="black" d="M1399.34,-242.942C1388.51,-235.318 1376.93,-224.817 1371,-212 1361.29,-191.026 1355.25,-176.91 1371,-160 1392.41,-137.016 1621.68,-142.403 1653,-140 1747.38,-132.76 1858.23,-123.395 1916.15,-118.435"/>
<polygon fill="black" stroke="black" points="1916.67,-121.904 1926.33,-117.562 1916.07,-114.929 1916.67,-121.904"/>
</g>
<!-- pdarun_h&#45;&gt;bytecode_h -->
<g id="edge76" class="edge"><title>pdarun_h&#45;&gt;bytecode_h</title>
<path fill="none" stroke="black" d="M1442.05,-274.583C1454.3,-284.666 1471.41,-296.607 1489,-302 1520.23,-311.577 2044.96,-308.385 2077,-302 2100.68,-297.281 2125.69,-287.171 2145.47,-277.832"/>
<polygon fill="black" stroke="black" points="2147.26,-280.852 2154.73,-273.336 2144.2,-274.555 2147.26,-280.852"/>
</g>
<!-- pdarun_h&#45;&gt;input_c -->
<g id="edge40" class="edge"><title>pdarun_h&#45;&gt;input_c</title>
<path fill="none" stroke="black" d="M1446.01,-242.326C1461.58,-231.947 1482.62,-217.92 1499.62,-206.587"/>
<polygon fill="black" stroke="black" points="1501.71,-209.399 1508.09,-200.94 1497.83,-203.574 1501.71,-209.399"/>
</g>
<!-- pdarun_h&#45;&gt;map_c -->
<g id="edge54" class="edge"><title>pdarun_h&#45;&gt;map_c</title>
<path fill="none" stroke="black" d="M1384.7,-249.63C1363.44,-243.423 1338.94,-232.173 1326,-212 1310.93,-188.504 1332.21,-112.266 1346,-88 1350.78,-79.5831 1357.49,-71.5458 1364.18,-64.6535"/>
<polygon fill="black" stroke="black" points="1366.63,-67.1493 1371.34,-57.6601 1361.74,-62.1396 1366.63,-67.1493"/>
</g>
<!-- pdarun_h&#45;&gt;pdarun_c -->
<g id="edge24" class="edge"><title>pdarun_h&#45;&gt;pdarun_c</title>
<path fill="none" stroke="black" d="M1424,-239.697C1424,-231.983 1424,-222.712 1424,-214.112"/>
<polygon fill="black" stroke="black" points="1427.5,-214.104 1424,-204.104 1420.5,-214.104 1427.5,-214.104"/>
</g>
<!-- pdarun_h&#45;&gt;pool_c -->
<g id="edge57" class="edge"><title>pdarun_h&#45;&gt;pool_c</title>
<path fill="none" stroke="black" d="M1392.97,-244.889C1371.22,-236.201 1341.58,-223.962 1316,-212 1310.89,-209.612 1305.54,-206.969 1300.35,-204.324"/>
<polygon fill="black" stroke="black" points="1301.73,-201.098 1291.24,-199.612 1298.51,-207.315 1301.73,-201.098"/>
</g>
<!-- pdarun_h&#45;&gt;program_c -->
<g id="edge62" class="edge"><title>pdarun_h&#45;&gt;program_c</title>
<path fill="none" stroke="black" d="M1449.82,-243.228C1459.09,-238.895 1469.78,-234.573 1480,-232 1597.55,-202.406 1634.77,-242.819 1752,-212 1757.93,-210.442 1764,-208.234 1769.81,-205.768"/>
<polygon fill="black" stroke="black" points="1771.65,-208.776 1779.3,-201.442 1768.75,-202.406 1771.65,-208.776"/>
</g>
<!-- pool_h -->
<g id="node41" class="node"><title>pool_h</title>
<ellipse fill="none" stroke="black" cx="1269" cy="-258" rx="35.194" ry="18"/>
<text text-anchor="middle" x="1269" y="-254.3" font-family="Times,serif" font-size="14.00">pool_h</text>
</g>
<!-- pool_h&#45;&gt;commit_c -->
<g id="edge7" class="edge"><title>pool_h&#45;&gt;commit_c</title>
<path fill="none" stroke="black" d="M1296.43,-246.642C1314.2,-241.524 1337.69,-235.674 1359,-232 1452.26,-215.922 1477.91,-229.045 1571,-212 1588.08,-208.872 1606.62,-204.048 1623.12,-199.469"/>
<polygon fill="black" stroke="black" points="1624.42,-202.741 1633.1,-196.667 1622.52,-196.002 1624.42,-202.741"/>
</g>
<!-- pool_h&#45;&gt;commit_c -->
<g id="edge16" class="edge"><title>pool_h&#45;&gt;commit_c</title>
<path fill="none" stroke="black" d="M1300.45,-249.786C1322.1,-244.116 1351.15,-236.457 1377,-232 1470.26,-215.922 1495.91,-229.045 1589,-212 1602.61,-209.508 1617.15,-205.938 1630.2,-202.274"/>
<polygon fill="black" stroke="black" points="1631.22,-205.622 1639.84,-199.469 1629.26,-198.901 1631.22,-205.622"/>
</g>
<!-- pool_h&#45;&gt;string_c -->
<g id="edge68" class="edge"><title>pool_h&#45;&gt;string_c</title>
<path fill="none" stroke="black" d="M1249.13,-242.673C1239.93,-234.788 1229.95,-224.142 1225,-212 1216.28,-190.599 1209.18,-176.847 1225,-160 1249.24,-134.192 1508.47,-147.831 1543,-140 1551.88,-137.985 1561.14,-134.857 1569.72,-131.487"/>
<polygon fill="black" stroke="black" points="1571.15,-134.683 1579.05,-127.626 1568.47,-128.215 1571.15,-134.683"/>
</g>
<!-- pool_h&#45;&gt;bytecode_c -->
<g id="edge32" class="edge"><title>pool_h&#45;&gt;bytecode_c</title>
<path fill="none" stroke="black" d="M1298.12,-247.85C1317.67,-242.156 1344.12,-235.307 1368,-232 1684.22,-188.211 1769.89,-256.561 2086,-212 2102.53,-209.67 2120.3,-205.573 2136.05,-201.362"/>
<polygon fill="black" stroke="black" points="2137.37,-204.628 2146.08,-198.595 2135.51,-197.88 2137.37,-204.628"/>
</g>
<!-- pool_h&#45;&gt;input_c -->
<g id="edge41" class="edge"><title>pool_h&#45;&gt;input_c</title>
<path fill="none" stroke="black" d="M1299.2,-248.784C1318.74,-243.614 1344.78,-236.999 1368,-232 1417.43,-221.359 1432.07,-228.11 1480,-212 1485.68,-210.09 1491.53,-207.613 1497.11,-204.962"/>
<polygon fill="black" stroke="black" points="1498.82,-208.021 1506.18,-200.407 1495.68,-201.765 1498.82,-208.021"/>
</g>
<!-- pool_h&#45;&gt;map_c -->
<g id="edge55" class="edge"><title>pool_h&#45;&gt;map_c</title>
<path fill="none" stroke="black" d="M1241.39,-246.741C1226.24,-239.522 1208.79,-228.222 1200,-212 1188.99,-191.679 1188.75,-180.19 1200,-160 1231.84,-102.837 1304.42,-70.0693 1349.8,-54.4582"/>
<polygon fill="black" stroke="black" points="1350.93,-57.7691 1359.32,-51.2961 1348.73,-51.1257 1350.93,-57.7691"/>
</g>
<!-- pool_h&#45;&gt;pdarun_c -->
<g id="edge25" class="edge"><title>pool_h&#45;&gt;pdarun_c</title>
<path fill="none" stroke="black" d="M1294.6,-245.441C1319.62,-234.137 1358.02,-216.796 1386.5,-203.937"/>
<polygon fill="black" stroke="black" points="1388.07,-207.068 1395.74,-199.763 1385.19,-200.689 1388.07,-207.068"/>
</g>
<!-- pool_h&#45;&gt;pool_c -->
<g id="edge58" class="edge"><title>pool_h&#45;&gt;pool_c</title>
<path fill="none" stroke="black" d="M1268.75,-239.697C1268.64,-231.983 1268.51,-222.712 1268.39,-214.112"/>
<polygon fill="black" stroke="black" points="1271.89,-214.053 1268.24,-204.104 1264.89,-214.153 1271.89,-214.053"/>
</g>
<!-- pool_h&#45;&gt;program_c -->
<g id="edge63" class="edge"><title>pool_h&#45;&gt;program_c</title>
<path fill="none" stroke="black" d="M1298.58,-247.916C1318.1,-242.326 1344.34,-235.569 1368,-232 1536.99,-206.513 1586.26,-253.683 1752,-212 1757.94,-210.506 1764.02,-208.331 1769.84,-205.879"/>
<polygon fill="black" stroke="black" points="1771.68,-208.889 1779.33,-201.561 1768.78,-202.517 1771.68,-208.889"/>
</g>
<!-- pool_h&#45;&gt;tree_c -->
<g id="edge73" class="edge"><title>pool_h&#45;&gt;tree_c</title>
<path fill="none" stroke="black" d="M1298.13,-247.886C1317.68,-242.207 1344.13,-235.362 1368,-232 1503.62,-212.901 1850.33,-241.851 1984,-212 1992.77,-210.042 2001.87,-206.776 2010.18,-203.24"/>
<polygon fill="black" stroke="black" points="2011.85,-206.33 2019.52,-199.028 2008.97,-199.949 2011.85,-206.33"/>
</g>
<!-- program_h -->
<g id="node43" class="node"><title>program_h</title>
<ellipse fill="none" stroke="black" cx="1922" cy="-186" rx="50.0912" ry="18"/>
<text text-anchor="middle" x="1922" y="-182.3" font-family="Times,serif" font-size="14.00">program_h</text>
</g>
<!-- program_h&#45;&gt;compiler_h -->
<g id="edge86" class="edge"><title>program_h&#45;&gt;compiler_h</title>
<path fill="none" stroke="black" d="M1898.61,-202.036C1886,-209.711 1869.82,-218.072 1854,-222 1804.5,-234.294 985.533,-234.145 936,-222 923.492,-218.933 910.733,-213.16 899.644,-207.12"/>
<polygon fill="black" stroke="black" points="901.182,-203.968 890.764,-202.038 897.705,-210.043 901.182,-203.968"/>
</g>
<!-- program_h&#45;&gt;string_c -->
<g id="edge69" class="edge"><title>program_h&#45;&gt;string_c</title>
<path fill="none" stroke="black" d="M1893.07,-171.19C1883.65,-167.114 1873.03,-162.958 1863,-160 1791.25,-138.842 1705.15,-126.293 1652.79,-120.026"/>
<polygon fill="black" stroke="black" points="1653.12,-116.541 1642.79,-118.856 1652.31,-123.494 1653.12,-116.541"/>
</g>
<!-- program_h&#45;&gt;iter_c -->
<g id="edge46" class="edge"><title>program_h&#45;&gt;iter_c</title>
<path fill="none" stroke="black" d="M1894.14,-170.932C1884.51,-166.685 1873.5,-162.492 1863,-160 1730.39,-128.527 1689.07,-173.643 1557,-140 1549.12,-137.992 1540.97,-134.853 1533.48,-131.47"/>
<polygon fill="black" stroke="black" points="1534.92,-128.283 1524.39,-127.12 1531.9,-134.596 1534.92,-128.283"/>
</g>
<!-- program_h&#45;&gt;list_c -->
<g id="edge50" class="edge"><title>program_h&#45;&gt;list_c</title>
<path fill="none" stroke="black" d="M1930.23,-168.055C1934.2,-159.887 1939.04,-149.912 1943.46,-140.824"/>
<polygon fill="black" stroke="black" points="1946.62,-142.313 1947.85,-131.789 1940.33,-139.255 1946.62,-142.313"/>
</g>
<!-- program_h&#45;&gt;debug_c -->
<g id="edge36" class="edge"><title>program_h&#45;&gt;debug_c</title>
<path fill="none" stroke="black" d="M1949.8,-201.126C1965.98,-209.059 1987.05,-217.95 2007,-222 2049.47,-230.622 2355.58,-234.737 2397,-222 2406.37,-219.119 2415.57,-213.955 2423.6,-208.422"/>
<polygon fill="black" stroke="black" points="2425.85,-211.115 2431.82,-202.364 2421.7,-205.481 2425.85,-211.115"/>
</g>
<!-- program_h&#45;&gt;input_c -->
<g id="edge42" class="edge"><title>program_h&#45;&gt;input_c</title>
<path fill="none" stroke="black" d="M1898.61,-202.036C1886,-209.711 1869.82,-218.072 1854,-222 1824.35,-229.365 1608.08,-231.38 1579,-222 1570.22,-219.168 1561.68,-214.158 1554.22,-208.759"/>
<polygon fill="black" stroke="black" points="1556.04,-205.739 1546,-202.349 1551.73,-211.259 1556.04,-205.739"/>
</g>
<!-- program_h&#45;&gt;map_h -->
<g id="edge104" class="edge"><title>program_h&#45;&gt;map_h</title>
<path fill="none" stroke="black" d="M1894.47,-170.946C1884.77,-166.645 1873.63,-162.416 1863,-160 1768.85,-138.608 1521,-169.273 1429,-140 1424.95,-138.711 1420.91,-136.887 1417.04,-134.806"/>
<polygon fill="black" stroke="black" points="1418.8,-131.78 1408.43,-129.61 1415.19,-137.773 1418.8,-131.78"/>
</g>
<!-- struct_h -->
<g id="node45" class="node"><title>struct_h</title>
<ellipse fill="none" stroke="black" cx="1725" cy="-258" rx="38.9931" ry="18"/>
<text text-anchor="middle" x="1725" y="-254.3" font-family="Times,serif" font-size="14.00">struct_h</text>
</g>
<!-- struct_h&#45;&gt;string_c -->
<g id="edge70" class="edge"><title>struct_h&#45;&gt;string_c</title>
<path fill="none" stroke="black" d="M1700.96,-243.472C1693.42,-239.502 1684.97,-235.335 1677,-232 1650.29,-220.829 1633.22,-234.5 1615,-212 1599.32,-192.642 1598.36,-163.492 1600.38,-142.201"/>
<polygon fill="black" stroke="black" points="1603.87,-142.518 1601.6,-132.168 1596.92,-141.672 1603.87,-142.518"/>
</g>
<!-- struct_h&#45;&gt;list_c -->
<g id="edge51" class="edge"><title>struct_h&#45;&gt;list_c</title>
<path fill="none" stroke="black" d="M1764.01,-256.12C1829.31,-253.733 1956.35,-244.873 1984,-212 2001.38,-191.344 1987.71,-160.438 1974.07,-139.088"/>
<polygon fill="black" stroke="black" points="1976.82,-136.902 1968.31,-130.581 1971.02,-140.825 1976.82,-136.902"/>
</g>
<!-- struct_h&#45;&gt;input_c -->
<g id="edge43" class="edge"><title>struct_h&#45;&gt;input_c</title>
<path fill="none" stroke="black" d="M1701.66,-243.193C1694,-239.117 1685.32,-234.96 1677,-232 1635.53,-217.248 1621.65,-226.245 1580,-212 1573.88,-209.906 1567.54,-207.242 1561.51,-204.439"/>
<polygon fill="black" stroke="black" points="1562.86,-201.208 1552.34,-199.981 1559.8,-207.503 1562.86,-201.208"/>
</g>
<!-- struct_h&#45;&gt;map_h -->
<g id="edge105" class="edge"><title>struct_h&#45;&gt;map_h</title>
<path fill="none" stroke="black" d="M1701.62,-243.306C1693.96,-239.236 1685.29,-235.054 1677,-232 1639.77,-218.281 1617.55,-240.555 1590,-212 1573.66,-195.062 1597.12,-176.149 1580,-160 1555.38,-136.773 1460.79,-151.634 1429,-140 1425.2,-138.609 1421.39,-136.799 1417.71,-134.789"/>
<polygon fill="black" stroke="black" points="1419.33,-131.674 1408.95,-129.503 1415.71,-137.667 1419.33,-131.674"/>
</g>
<!-- struct_h&#45;&gt;program_c -->
<g id="edge64" class="edge"><title>struct_h&#45;&gt;program_c</title>
<path fill="none" stroke="black" d="M1742.36,-241.811C1753.14,-232.377 1767.19,-220.081 1779.26,-209.525"/>
<polygon fill="black" stroke="black" points="1781.62,-212.107 1786.84,-202.888 1777.01,-206.839 1781.62,-212.107"/>
</g>
<!-- tree_h&#45;&gt;cstring_h -->
<g id="edge89" class="edge"><title>tree_h&#45;&gt;cstring_h</title>
<path fill="none" stroke="black" d="M2010.97,-263.816C1961.44,-271.286 1861.38,-285.483 1776,-292 1469.65,-315.384 1390.58,-280.127 1085,-312 1069.86,-313.58 1053.48,-316.213 1038.71,-318.941"/>
<polygon fill="black" stroke="black" points="1037.95,-315.524 1028.78,-320.833 1039.25,-322.4 1037.95,-315.524"/>
</g>
<!-- tree_h&#45;&gt;commit_c -->
<g id="edge8" class="edge"><title>tree_h&#45;&gt;commit_c</title>
<path fill="none" stroke="black" d="M2009.54,-255.281C1950.97,-251.363 1825.04,-239.862 1723,-212 1716.62,-210.259 1710.02,-208.031 1703.72,-205.625"/>
<polygon fill="black" stroke="black" points="1704.73,-202.256 1694.14,-201.741 1702.1,-208.743 1704.73,-202.256"/>
</g>
<!-- tree_h&#45;&gt;commit_c -->
<g id="edge17" class="edge"><title>tree_h&#45;&gt;commit_c</title>
<path fill="none" stroke="black" d="M2009.89,-254.504C1954.16,-249.946 1837.01,-238.215 1741,-212 1732.08,-209.565 1722.72,-206.177 1713.79,-202.68"/>
<polygon fill="black" stroke="black" points="1714.91,-199.357 1704.33,-198.883 1712.3,-205.854 1714.91,-199.357"/>
</g>
<!-- tree_h&#45;&gt;iter_c -->
<g id="edge47" class="edge"><title>tree_h&#45;&gt;iter_c</title>
<path fill="none" stroke="black" d="M2009.39,-256.278C1940.58,-254.104 1783.59,-245.505 1744,-212 1725.44,-196.292 1745.81,-175.402 1727,-160 1697.57,-135.906 1593.61,-150.342 1557,-140 1549.17,-137.788 1541.05,-134.571 1533.55,-131.177"/>
<polygon fill="black" stroke="black" points="1535,-127.989 1524.47,-126.845 1531.99,-134.308 1535,-127.989"/>
</g>
<!-- tree_h&#45;&gt;bytecode_h -->
<g id="edge77" class="edge"><title>tree_h&#45;&gt;bytecode_h</title>
<path fill="none" stroke="black" d="M2074.77,-258C2090.26,-258 2105.75,-258 2121.24,-258"/>
<polygon fill="black" stroke="black" points="2121.42,-261.5 2131.42,-258 2121.42,-254.5 2121.42,-261.5"/>
</g>
<!-- tree_h&#45;&gt;input_c -->
<g id="edge44" class="edge"><title>tree_h&#45;&gt;input_c</title>
<path fill="none" stroke="black" d="M2010.13,-254.009C1904.53,-244.092 1572.63,-212.874 1570,-212 1565.7,-210.569 1561.38,-208.619 1557.24,-206.435"/>
<polygon fill="black" stroke="black" points="1558.95,-203.381 1548.54,-201.39 1555.44,-209.436 1558.95,-203.381"/>
</g>
<!-- tree_h&#45;&gt;pdarun_c -->
<g id="edge26" class="edge"><title>tree_h&#45;&gt;pdarun_c</title>
<path fill="none" stroke="black" d="M2010.09,-253.728C1960.18,-248.672 1860.61,-238.833 1776,-232 1644.57,-221.386 1607.96,-243.813 1480,-212 1473.06,-210.274 1465.9,-207.732 1459.12,-204.921"/>
<polygon fill="black" stroke="black" points="1460.09,-201.522 1449.53,-200.674 1457.26,-207.923 1460.09,-201.522"/>
</g>
<!-- tree_h&#45;&gt;program_c -->
<g id="edge65" class="edge"><title>tree_h&#45;&gt;program_c</title>
<path fill="none" stroke="black" d="M2011.8,-250.961C1975.87,-243.421 1914.29,-229.375 1863,-212 1856.58,-209.825 1849.88,-207.243 1843.41,-204.577"/>
<polygon fill="black" stroke="black" points="1844.72,-201.333 1834.15,-200.649 1841.99,-207.777 1844.72,-201.333"/>
</g>
<!-- tree_h&#45;&gt;tree_c -->
<g id="edge74" class="edge"><title>tree_h&#45;&gt;tree_c</title>
<path fill="none" stroke="black" d="M2042,-239.697C2042,-231.983 2042,-222.712 2042,-214.112"/>
<polygon fill="black" stroke="black" points="2045.5,-214.104 2042,-204.104 2038.5,-214.104 2045.5,-214.104"/>
</g>
</g>
</svg>
